<?xml version="1.0" standalone="yes"?>

<svg version="1.1" viewBox="0.0 0.0 959.1732283464567 370.5328083989501" fill="none" stroke="none" stroke-linecap="square" stroke-miterlimit="10" xmlns="http://www.w3.org/2000/svg" xmlns:xlink="http://www.w3.org/1999/xlink"><clipPath id="p.0"><path d="m0 0l959.1732 0l0 370.5328l-959.1732 0l0 -370.5328z" clip-rule="nonzero"></path></clipPath><g clip-path="url(#p.0)"><path fill="#000000" fill-opacity="0.0" d="m0 0l959.1732 0l0 370.5328l-959.1732 0z" fill-rule="evenodd"></path><path fill="#ffffff" d="m-0.7007874 0l959.1811 0l0 370.51968l-959.1811 0z" fill-rule="evenodd"></path><path fill="#000000" fill-opacity="0.0" d="m13.580052 237.93439l221.82678 0l0 83.27557l-221.82678 0z" fill-rule="evenodd"></path><path fill="#000000" d="m41.438213 264.85437l-2.875 0l0 -11.17186l-3.6875 0l0 -2.390625l10.25 0l0 2.390625l-3.6875 0l0 11.17186zm9.647614 -8.546875q-0.90625 0 -1.421875 0.578125q-0.5 0.5625 -0.578125 1.609375l3.96875 0q-0.015625 -1.046875 -0.546875 -1.609375q-0.515625 -0.578125 -1.421875 -0.578125zm0.390625 8.734375q-2.5 0 -3.90625 -1.375q-1.40625 -1.390625 -1.40625 -3.921875q0 -2.609375 1.296875 -4.0312347q1.296875 -1.421875 3.609375 -1.421875q2.1875 0 3.40625 1.25q1.234375 1.2499847 1.234375 3.4531097l0 1.375l-6.6875 0q0.046875 1.203125 0.71875 1.890625q0.671875 0.671875 1.875 0.671875q0.9375 0 1.765625 -0.1875q0.84375 -0.203125 1.75 -0.625l0 2.1875q-0.75 0.375 -1.59375 0.546875q-0.84375 0.1875 -2.0625 0.1875zm10.553741 0q-4.84375 0 -4.84375 -5.3125q0 -2.65625 1.3125 -4.0468597q1.3125 -1.390625 3.78125 -1.390625q1.7968788 0 3.2187538 0.703125l-0.828125 2.1874847q-0.6718788 -0.265625 -1.2500038 -0.4375q-0.578125 -0.171875 -1.140625 -0.171875q-2.21875 0 -2.21875 3.125q0 3.046875 2.21875 3.046875q0.8125 0 1.5 -0.21875q0.7031288 -0.21875 1.3906288 -0.671875l0 2.421875q-0.671875 0.421875 -1.3750038 0.59375q-0.703125 0.171875 -1.765625 0.171875zm14.951679 -0.1875l-2.828125 0l0 -6.0625q0 -2.234375 -1.671875 -2.234375q-1.1875 0 -1.71875 0.8125q-0.53125 0.796875 -0.53125 2.609375l0 4.875l-2.828125 0l0 -14.437485l2.828125 0l0 2.9375q0 0.34375 -0.0625 1.625l-0.0625 0.828125l0.140625 0q0.953125 -1.515625 3.015625 -1.515625q1.828125 0 2.765625 0.984375q0.953125 0.98435974 0.953125 2.8124847l0 6.765625zm12.261383 0l-2.828125 0l0 -6.0625q0 -1.125 -0.40625 -1.671875q-0.390625 -0.5625 -1.265625 -0.5625q-1.1875 0 -1.71875 0.796875q-0.53125 0.78125 -0.53125 2.625l0 4.875l-2.828125 0l0 -10.374985l2.15625 0l0.390625 1.328125l0.15625 0q0.46875 -0.75 1.296875 -1.125q0.828125 -0.390625 1.890625 -0.390625q1.8125 0 2.75 0.984375q0.9375 0.96873474 0.9375 2.8124847l0 6.765625zm2.558258 -13.04686q0 -1.390625 1.546875 -1.390625q1.53125 0 1.53125 1.390625q0 0.65625 -0.390625 1.03125q-0.375 0.359375 -1.140625 0.359375q-1.546875 0 -1.546875 -1.390625zm2.953125 13.04686l-2.828125 0l0 -10.374985l2.828125 0l0 10.374985zm7.0840607 0.1875q-4.84375 0 -4.84375 -5.3125q0 -2.65625 1.3125 -4.0468597q1.3125 -1.390625 3.78125 -1.390625q1.796875 0 3.21875 0.703125l-0.828125 2.1874847q-0.671875 -0.265625 -1.25 -0.4375q-0.578125 -0.171875 -1.140625 -0.171875q-2.21875 0 -2.21875 3.125q0 3.046875 2.21875 3.046875q0.8125 0 1.5 -0.21875q0.703125 -0.21875 1.390625 -0.671875l0 2.421875q-0.671875 0.421875 -1.375 0.59375q-0.703125 0.171875 -1.765625 0.171875zm11.9673 -0.1875l-0.546875 -1.40625l-0.078125 0q-0.71875 0.890625 -1.484375 1.25q-0.75 0.34375 -1.953125 0.34375q-1.5 0 -2.359375 -0.84375q-0.859375 -0.859375 -0.859375 -2.4375q0 -1.65625 1.15625 -2.4375q1.15625 -0.78125 3.484375 -0.875l1.796875 -0.046875l0 -0.453125q0 -1.578125 -1.609375 -1.578125q-1.25 0 -2.921875 0.75l-0.9375 -1.9218597q1.78125 -0.921875 3.96875 -0.921875q2.09375 0 3.203125 0.90625q1.109375 0.90623474 1.109375 2.7656097l0 6.90625l-1.96875 0zm-0.84375 -4.8125l-1.09375 0.046875q-1.234375 0.03125 -1.84375 0.4375q-0.59375 0.40625 -0.59375 1.25q0 1.1875 1.375 1.1875q0.984375 0 1.5625 -0.5625q0.59375 -0.5625 0.59375 -1.5l0 -0.859375zm8.346573 4.8125l-2.828125 0l0 -14.437485l2.828125 0l0 14.437485zm10.805313 -7.546875l0.9375 0q1.359375 0 2.0 -0.453125q0.65625 -0.453125 0.65625 -1.4218597q0 -0.96875 -0.671875 -1.375q-0.65625 -0.40625 -2.046875 -0.40625l-0.875 0l0 3.6562347zm0 2.34375l0 5.203125l-2.875 0l0 -13.562485l3.953125 0q2.765625 0 4.09375 1.015625q1.328125 1.0 1.328125 3.046875q0 1.2031097 -0.65625 2.1406097q-0.65625 0.921875 -1.875 1.453125q3.0625 4.5625 4.0 5.90625l-3.1875 0l-3.25 -5.203125l-1.53125 0zm13.519165 -3.34375q-0.90625 0 -1.421875 0.578125q-0.5 0.5625 -0.578125 1.609375l3.96875 0q-0.015625 -1.046875 -0.546875 -1.609375q-0.515625 -0.578125 -1.421875 -0.578125zm0.390625 8.734375q-2.5 0 -3.90625 -1.375q-1.40625 -1.390625 -1.40625 -3.921875q0 -2.609375 1.296875 -4.0312347q1.296875 -1.421875 3.609375 -1.421875q2.1875 0 3.40625 1.25q1.234375 1.2499847 1.234375 3.4531097l0 1.375l-6.6875 0q0.046875 1.203125 0.71875 1.890625q0.671875 0.671875 1.875 0.671875q0.9375 0 1.765625 -0.1875q0.84375 -0.203125 1.75 -0.625l0 2.1875q-0.75 0.375 -1.59375 0.546875q-0.84375 0.1875 -2.0625 0.1875zm10.553741 0q-4.84375 0 -4.84375 -5.3125q0 -2.65625 1.3125 -4.0468597q1.3125 -1.390625 3.78125 -1.390625q1.796875 0 3.21875 0.703125l-0.828125 2.1874847q-0.671875 -0.265625 -1.25 -0.4375q-0.578125 -0.171875 -1.140625 -0.171875q-2.21875 0 -2.21875 3.125q0 3.046875 2.21875 3.046875q0.8125 0 1.5 -0.21875q0.703125 -0.21875 1.390625 -0.671875l0 2.421875q-0.671875 0.421875 -1.375 0.59375q-0.703125 0.171875 -1.765625 0.171875zm11.17041 -10.749985q0.5625 0 0.953125 0.078125l-0.21875 2.6562347q-0.34375 -0.09375 -0.828125 -0.09375q-1.359375 0 -2.125 0.703125q-0.75 0.6875 -0.75 1.9375l0 5.28125l-2.828125 0l0 -10.374985l2.140625 0l0.421875 1.7499847l0.140625 0q0.484375 -0.87498474 1.296875 -1.4062347q0.828125 -0.53125 1.796875 -0.53125zm10.018707 10.562485l-0.375 -1.328125l-0.15625 0q-0.453125 0.71875 -1.296875 1.125q-0.828125 0.390625 -1.890625 0.390625q-1.828125 0 -2.765625 -0.96875q-0.921875 -0.984375 -0.921875 -2.828125l0 -6.7656097l2.84375 0l0 6.0624847q0 1.125 0.390625 1.6875q0.40625 0.5625 1.265625 0.5625q1.1875 0 1.71875 -0.796875q0.53125 -0.796875 0.53125 -2.640625l0 -4.8749847l2.828125 0l0 10.374985l-2.171875 0zm4.792633 -13.04686q0 -1.390625 1.546875 -1.390625q1.53125 0 1.53125 1.390625q0 0.65625 -0.390625 1.03125q-0.375 0.359375 -1.140625 0.359375q-1.546875 0 -1.546875 -1.390625zm2.953125 13.04686l-2.828125 0l0 -10.374985l2.828125 0l0 10.374985zm7.240326 -2.0625q0.734375 0 1.78125 -0.328125l0 2.109375q-1.0625 0.46875 -2.609375 0.46875q-1.6875 0 -2.46875 -0.859375q-0.765625 -0.859375 -0.765625 -2.578125l0 -5.0l-1.359375 0l0 -1.1874847l1.5625 -0.953125l0.8125 -2.1875l1.8125 0l0 2.203125l2.90625 0l0 2.1249847l-2.90625 0l0 5.0q0 0.609375 0.328125 0.90625q0.34375 0.28125 0.90625 0.28125zm8.020203 -6.484375q-0.90625 0 -1.421875 0.578125q-0.5 0.5625 -0.578125 1.609375l3.96875 0q-0.015625 -1.046875 -0.546875 -1.609375q-0.515625 -0.578125 -1.421875 -0.578125zm0.390625 8.734375q-2.5 0 -3.90625 -1.375q-1.40625 -1.390625 -1.40625 -3.921875q0 -2.609375 1.296875 -4.0312347q1.296875 -1.421875 3.609375 -1.421875q2.1875 0 3.40625 1.25q1.234375 1.2499847 1.234375 3.4531097l0 1.375l-6.6875 0q0.046875 1.203125 0.71875 1.890625q0.671875 0.671875 1.875 0.671875q0.9375 0 1.765625 -0.1875q0.84375 -0.203125 1.75 -0.625l0 2.1875q-0.75 0.375 -1.59375 0.546875q-0.84375 0.1875 -2.0625 0.1875zm12.131866 -10.749985q0.5625 0 0.953125 0.078125l-0.21875 2.6562347q-0.34375 -0.09375 -0.828125 -0.09375q-1.359375 0 -2.125 0.703125q-0.75 0.6875 -0.75 1.9375l0 5.28125l-2.828125 0l0 -10.374985l2.140625 0l0.421875 1.7499847l0.140625 0q0.484375 -0.87498474 1.296875 -1.4062347q0.828125 -0.53125 1.796875 -0.53125z" fill-rule="nonzero"></path><path fill="#000000" d="m36.74663 281.65125q0 -2.453125 0.71875 -4.59375q0.71875 -2.15625 2.0625 -3.765625l1.515625 0q-1.34375 1.796875 -2.015625 3.9375q-0.671875 2.140625 -0.671875 4.40625q0 2.21875 0.6875 4.34375q0.6875 2.125 1.96875 3.875l-1.484375 0q-1.359375 -1.578125 -2.078125 -3.671875q-0.703125 -2.109375 -0.703125 -4.53125zm8.19223 5.203125l-1.578125 0l0 -13.5625l7.5625 0l0 1.40625l-5.984375 0l0 4.953125l5.625 0l0 1.40625l-5.625 0l0 5.796875zm12.456863 -10.359375q0.6875 0 1.21875 0.109375l-0.203125 1.4375q-0.640625 -0.140625 -1.125 -0.140625q-1.234375 0 -2.109375 1.0q-0.875 1.0 -0.875 2.5l0 5.453125l-1.53125 0l0 -10.171875l1.265625 0l0.171875 1.890625l0.078125 0q0.5625 -1.0 1.359375 -1.53125q0.796875 -0.546875 1.75 -0.546875zm7.2717934 10.546875q-2.2500038 0 -3.5625038 -1.375q-1.296875 -1.375 -1.296875 -3.8125q0 -2.453125 1.203125 -3.90625q1.21875 -1.453125 3.2656288 -1.453125q1.90625 0 3.015625 1.265625q1.125 1.25 1.125 3.3125l0 0.96875l-7.015629 0q0.046875 1.796875 0.90625 2.734375q0.859375 0.921875 2.4218788 0.921875q1.640625 0 3.25 -0.6875l0 1.375q-0.8125 0.34375 -1.546875 0.5q-0.734375 0.15625 -1.765625 0.15625zm-0.40625 -9.25q-1.2343788 0 -1.9687538 0.796875q-0.71875 0.796875 -0.84375 2.203125l5.312504 0q0 -1.453125 -0.65625 -2.21875q-0.640625 -0.78125 -1.84375 -0.78125zm13.138687 6.28125q0 1.421875 -1.0625 2.203125q-1.046875 0.765625 -2.953125 0.765625q-2.03125 0 -3.15625 -0.640625l0 -1.4375q0.734375 0.375 1.5625 0.59375q0.84375 0.21875 1.625 0.21875q1.203125 0 1.84375 -0.390625q0.65625 -0.390625 0.65625 -1.171875q0 -0.59375 -0.515625 -1.015625q-0.515625 -0.421875 -2.0 -1.0q-1.421875 -0.53125 -2.03125 -0.921875q-0.59375 -0.390625 -0.890625 -0.890625q-0.28125 -0.515625 -0.28125 -1.203125q0 -1.25 1.0 -1.96875q1.015625 -0.71875 2.78125 -0.71875q1.640625 0 3.21875 0.671875l-0.546875 1.25q-1.53125 -0.625 -2.78125 -0.625q-1.09375 0 -1.65625 0.34375q-0.546875 0.34375 -0.546875 0.9375q0 0.421875 0.203125 0.703125q0.203125 0.28125 0.671875 0.546875q0.46875 0.265625 1.78125 0.75q1.8125 0.65625 2.4375 1.328125q0.640625 0.671875 0.640625 1.671875zm9.306229 2.78125l0 -6.578125q0 -1.25 -0.578125 -1.859375q-0.5625 -0.609375 -1.765625 -0.609375q-1.609375 0 -2.34375 0.875q-0.734375 0.875 -0.734375 2.859375l0 5.3125l-1.53125 0l0 -14.4375l1.53125 0l0 4.375q0 0.78125 -0.078125 1.296875l0.09375 0q0.453125 -0.71875 1.296875 -1.140625q0.84375 -0.421875 1.921875 -0.421875q1.859375 0 2.78125 0.890625q0.9375 0.875 0.9375 2.796875l0 6.640625l-1.53125 0zm18.10939 -5.09375q0 2.484375 -1.25 3.890625q-1.25 1.390625 -3.453125 1.390625q-1.375 0 -2.4375 -0.640625q-1.046875 -0.640625 -1.625 -1.828125q-0.578125 -1.203125 -0.578125 -2.8125q0 -2.484375 1.234375 -3.875q1.25 -1.390625 3.46875 -1.390625q2.125 0 3.375 1.421875q1.265625 1.421875 1.265625 3.84375zm-7.75 0q0 1.953125 0.78125 2.96875q0.78125 1.015625 2.296875 1.015625q1.515625 0 2.296875 -1.015625q0.78125 -1.015625 0.78125 -2.96875q0 -1.9375 -0.78125 -2.9375q-0.78125 -1.015625 -2.3125 -1.015625q-1.515625 0 -2.296875 1.0q-0.765625 0.984375 -0.765625 2.953125zm11.690323 -5.078125l0 6.59375q0 1.25 0.5625 1.859375q0.578125 0.609375 1.78125 0.609375q1.59375 0 2.328125 -0.859375q0.734375 -0.875 0.734375 -2.859375l0 -5.34375l1.546875 0l0 10.171875l-1.265625 0l-0.234375 -1.359375l-0.078125 0q-0.46875 0.75 -1.3125 1.15625q-0.84375 0.390625 -1.921875 0.390625q-1.84375 0 -2.78125 -0.875q-0.921875 -0.890625 -0.921875 -2.828125l0 -6.65625l1.5625 0zm13.294388 9.09375q0.40625 0 0.78125 -0.0625q0.390625 -0.0625 0.609375 -0.125l0 1.171875q-0.25 0.125 -0.75 0.203125q-0.484375 0.078125 -0.875 0.078125q-2.9375 0 -2.9375 -3.109375l0 -6.046875l-1.46875 0l0 -0.75l1.46875 -0.640625l0.640625 -2.171875l0.890625 0l0 2.359375l2.953125 0l0 1.203125l-2.953125 0l0 5.984375q0 0.921875 0.4375 1.421875q0.4375 0.484375 1.203125 0.484375zm16.916786 -4.015625q0 2.484375 -1.25 3.890625q-1.25 1.390625 -3.453125 1.390625q-1.375 0 -2.4375 -0.640625q-1.046875 -0.640625 -1.625 -1.828125q-0.578125 -1.203125 -0.578125 -2.8125q0 -2.484375 1.234375 -3.875q1.25 -1.390625 3.46875 -1.390625q2.125 0 3.375 1.421875q1.265625 1.421875 1.265625 3.84375zm-7.75 0q0 1.953125 0.78125 2.96875q0.78125 1.015625 2.296875 1.015625q1.515625 0 2.296875 -1.015625q0.78125 -1.015625 0.78125 -2.96875q0 -1.9375 -0.78125 -2.9375q-0.78125 -1.015625 -2.3125 -1.015625q-1.515625 0 -2.296875 1.0q-0.765625 0.984375 -0.765625 2.953125zm14.830948 -3.875l-2.59375 0l0 8.96875l-1.53125 0l0 -8.96875l-1.828125 0l0 -0.703125l1.828125 -0.546875l0 -0.578125q0 -3.734375 3.265625 -3.734375q0.8125 0 1.890625 0.3125l-0.390625 1.234375q-0.890625 -0.28125 -1.53125 -0.28125q-0.859375 0 -1.28125 0.578125q-0.421875 0.578125 -0.421875 1.859375l0 0.65625l2.59375 0l0 1.203125zm13.136993 6.1875q0 1.421875 -1.0625 2.203125q-1.046875 0.765625 -2.953125 0.765625q-2.03125 0 -3.15625 -0.640625l0 -1.4375q0.734375 0.375 1.5625 0.59375q0.84375 0.21875 1.625 0.21875q1.203125 0 1.84375 -0.390625q0.65625 -0.390625 0.65625 -1.171875q0 -0.59375 -0.515625 -1.015625q-0.515625 -0.421875 -2.0 -1.0q-1.421875 -0.53125 -2.03125 -0.921875q-0.59375 -0.390625 -0.890625 -0.890625q-0.28125 -0.515625 -0.28125 -1.203125q0 -1.25 1.0 -1.96875q1.015625 -0.71875 2.78125 -0.71875q1.640625 0 3.21875 0.671875l-0.546875 1.25q-1.53125 -0.625 -2.78125 -0.625q-1.09375 0 -1.65625 0.34375q-0.546875 0.34375 -0.546875 0.9375q0 0.421875 0.203125 0.703125q0.203125 0.28125 0.671875 0.546875q0.46875 0.265625 1.78125 0.75q1.8125 0.65625 2.4375 1.328125q0.640625 0.671875 0.640625 1.671875zm6.4156036 2.96875q-2.21875 0 -3.4375 -1.359375q-1.203125 -1.359375 -1.203125 -3.84375q0 -2.5625 1.234375 -3.953125q1.234375 -1.390625 3.5 -1.390625q0.734375 0 1.46875 0.171875q0.734375 0.15625 1.15625 0.359375l-0.484375 1.3125q-0.5 -0.203125 -1.109375 -0.328125q-0.609375 -0.140625 -1.0625 -0.140625q-3.109375 0 -3.109375 3.953125q0 1.875 0.75 2.875q0.765625 1.0 2.25 1.0q1.28125 0 2.609375 -0.546875l0 1.359375q-1.015625 0.53125 -2.5625 0.53125zm11.772385 -0.1875l0 -6.578125q0 -1.25 -0.578125 -1.859375q-0.5625 -0.609375 -1.765625 -0.609375q-1.609375 0 -2.34375 0.875q-0.734375 0.875 -0.734375 2.859375l0 5.3125l-1.53125 0l0 -14.4375l1.53125 0l0 4.375q0 0.78125 -0.078125 1.296875l0.09375 0q0.453125 -0.71875 1.296875 -1.140625q0.84375 -0.421875 1.921875 -0.421875q1.859375 0 2.78125 0.890625q0.9375 0.875 0.9375 2.796875l0 6.640625l-1.53125 0zm13.263138 -5.09375q0 2.484375 -1.25 3.890625q-1.25 1.390625 -3.453125 1.390625q-1.375 0 -2.4375 -0.640625q-1.046875 -0.640625 -1.625 -1.828125q-0.578125 -1.203125 -0.578125 -2.8125q0 -2.484375 1.234375 -3.875q1.25 -1.390625 3.46875 -1.390625q2.125 0 3.375 1.421875q1.265625 1.421875 1.265625 3.84375zm-7.75 0q0 1.953125 0.78125 2.96875q0.78125 1.015625 2.296875 1.015625q1.515625 0 2.296875 -1.015625q0.78125 -1.015625 0.78125 -2.96875q0 -1.9375 -0.78125 -2.9375q-0.78125 -1.015625 -2.3125 -1.015625q-1.515625 0 -2.296875 1.0q-0.765625 0.984375 -0.765625 2.953125zm19.018448 0q0 2.484375 -1.25 3.890625q-1.25 1.390625 -3.453125 1.390625q-1.375 0 -2.4375 -0.640625q-1.046875 -0.640625 -1.625 -1.828125q-0.578125 -1.203125 -0.578125 -2.8125q0 -2.484375 1.234375 -3.875q1.25 -1.390625 3.46875 -1.390625q2.125 0 3.375 1.421875q1.265625 1.421875 1.265625 3.84375zm-7.75 0q0 1.953125 0.78125 2.96875q0.78125 1.015625 2.296875 1.015625q1.515625 0 2.296875 -1.015625q0.78125 -1.015625 0.78125 -2.96875q0 -1.9375 -0.78125 -2.9375q-0.78125 -1.015625 -2.3125 -1.015625q-1.515625 0 -2.296875 1.0q-0.765625 0.984375 -0.765625 2.953125zm11.784073 5.09375l-1.53125 0l0 -14.4375l1.53125 0l0 14.4375zm6.4062195 -5.203125q0 2.4375 -0.71875 4.546875q-0.71875 2.109375 -2.078125 3.65625l-1.484375 0q1.296875 -1.734375 1.984375 -3.859375q0.6875 -2.140625 0.6875 -4.359375q0 -2.265625 -0.671875 -4.40625q-0.671875 -2.140625 -2.015625 -3.9375l1.5 0q1.375 1.625 2.078125 3.78125q0.71875 2.140625 0.71875 4.578125z" fill-rule="nonzero"></path><path fill="#000000" fill-opacity="0.0" d="m158.57217 194.5643l137.44882 0" fill-rule="evenodd"></path><path stroke="#000000" stroke-width="2.0" stroke-linejoin="round" stroke-linecap="butt" d="m158.57217 194.5643l125.44882 0" fill-rule="evenodd"></path><path fill="#000000" stroke="#000000" stroke-width="2.0" stroke-linecap="butt" d="m284.021 197.86777l9.076202 -3.3034668l-9.076202 -3.3034668z" fill-rule="evenodd"></path><path fill="#000000" fill-opacity="0.0" d="m219.18373 237.93439l221.82677 0l0 83.27557l-221.82677 0z" fill-rule="evenodd"></path><path fill="#000000" d="m281.26456 261.08875q0 1.828125 -1.328125 2.890625q-1.328125 1.0625 -3.671875 1.0625q-2.171875 0 -3.84375 -0.8125l0 -2.671875q1.375 0.609375 2.3125 0.859375q0.953125 0.25 1.75 0.25q0.9375 0 1.4375 -0.359375q0.515625 -0.359375 0.515625 -1.078125q0 -0.40625 -0.21875 -0.703125q-0.21875 -0.3125 -0.65625 -0.59375q-0.4375 -0.296875 -1.75 -0.9375q-1.25 -0.578125 -1.875 -1.109375q-0.625 -0.546875 -1.0 -1.25q-0.359375 -0.71873474 -0.359375 -1.6874847q0 -1.796875 1.21875 -2.828125q1.21875 -1.03125 3.375 -1.03125q1.0625 0 2.015625 0.265625q0.953125 0.25 2.015625 0.703125l-0.9375 2.234375q-1.078125 -0.453125 -1.796875 -0.625q-0.703125 -0.171875 -1.390625 -0.171875q-0.8125 0 -1.25 0.375q-0.4375 0.375 -0.4375 1.0q0 0.375 0.171875 0.65625q0.171875 0.28125 0.5625 0.54685974q0.390625 0.265625 1.828125 0.953125q1.890625 0.90625 2.59375 1.828125q0.71875 0.90625 0.71875 2.234375zm7.8380127 -6.7968597q0.5625 0 0.953125 0.078125l-0.21875 2.6562347q-0.34375 -0.09375 -0.828125 -0.09375q-1.359375 0 -2.125 0.703125q-0.75 0.6875 -0.75 1.9375l0 5.28125l-2.828125 0l0 -10.374985l2.140625 0l0.421875 1.7499847l0.140625 0q0.484375 -0.87498474 1.296875 -1.4062347q0.828125 -0.53125 1.796875 -0.53125zm2.2687073 9.23436q0 -0.78125 0.421875 -1.171875q0.421875 -0.40625 1.21875 -0.40625q0.765625 0 1.1875 0.40625q0.421875 0.40625 0.421875 1.171875q0 0.734375 -0.421875 1.15625q-0.421875 0.421875 -1.1875 0.421875q-0.78125 0 -1.21875 -0.40625q-0.421875 -0.421875 -0.421875 -1.171875zm16.025574 1.328125l-2.875 0l0 -11.17186l-3.6875 0l0 -2.390625l10.25 0l0 2.390625l-3.6875 0l0 11.17186zm9.647614 -8.546875q-0.90625 0 -1.421875 0.578125q-0.5 0.5625 -0.578125 1.609375l3.96875 0q-0.015625 -1.046875 -0.546875 -1.609375q-0.515625 -0.578125 -1.421875 -0.578125zm0.390625 8.734375q-2.5 0 -3.90625 -1.375q-1.40625 -1.390625 -1.40625 -3.921875q0 -2.609375 1.296875 -4.0312347q1.296875 -1.421875 3.609375 -1.421875q2.1875 0 3.40625 1.25q1.234375 1.2499847 1.234375 3.4531097l0 1.375l-6.6875 0q0.046875 1.203125 0.71875 1.890625q0.671875 0.671875 1.875 0.671875q0.9375 0 1.765625 -0.1875q0.84375 -0.203125 1.75 -0.625l0 2.1875q-0.75 0.375 -1.59375 0.546875q-0.84375 0.1875 -2.0625 0.1875zm10.553741 0q-4.84375 0 -4.84375 -5.3125q0 -2.65625 1.3125 -4.0468597q1.3125 -1.390625 3.78125 -1.390625q1.796875 0 3.21875 0.703125l-0.828125 2.1874847q-0.671875 -0.265625 -1.25 -0.4375q-0.578125 -0.171875 -1.140625 -0.171875q-2.21875 0 -2.21875 3.125q0 3.046875 2.21875 3.046875q0.8125 0 1.5 -0.21875q0.703125 -0.21875 1.390625 -0.671875l0 2.421875q-0.671875 0.421875 -1.375 0.59375q-0.703125 0.171875 -1.765625 0.171875zm14.951691 -0.1875l-2.828125 0l0 -6.0625q0 -2.234375 -1.671875 -2.234375q-1.1875 0 -1.71875 0.8125q-0.53125 0.796875 -0.53125 2.609375l0 4.875l-2.828125 0l0 -14.437485l2.828125 0l0 2.9375q0 0.34375 -0.0625 1.625l-0.0625 0.828125l0.140625 0q0.953125 -1.515625 3.015625 -1.515625q1.828125 0 2.765625 0.984375q0.953125 0.98435974 0.953125 2.8124847l0 6.765625zm12.261383 0l-2.828125 0l0 -6.0625q0 -1.125 -0.40625 -1.671875q-0.390625 -0.5625 -1.265625 -0.5625q-1.1875 0 -1.71875 0.796875q-0.53125 0.78125 -0.53125 2.625l0 4.875l-2.828125 0l0 -10.374985l2.15625 0l0.390625 1.328125l0.15625 0q0.46875 -0.75 1.296875 -1.125q0.828125 -0.390625 1.890625 -0.390625q1.8125 0 2.75 0.984375q0.9375 0.96873474 0.9375 2.8124847l0 6.765625zm2.558258 -13.04686q0 -1.390625 1.546875 -1.390625q1.53125 0 1.53125 1.390625q0 0.65625 -0.390625 1.03125q-0.375 0.359375 -1.140625 0.359375q-1.546875 0 -1.546875 -1.390625zm2.953125 13.04686l-2.828125 0l0 -10.374985l2.828125 0l0 10.374985zm7.0840454 0.1875q-4.84375 0 -4.84375 -5.3125q0 -2.65625 1.3125 -4.0468597q1.3125 -1.390625 3.78125 -1.390625q1.796875 0 3.21875 0.703125l-0.828125 2.1874847q-0.671875 -0.265625 -1.25 -0.4375q-0.578125 -0.171875 -1.140625 -0.171875q-2.21875 0 -2.21875 3.125q0 3.046875 2.21875 3.046875q0.8125 0 1.5 -0.21875q0.703125 -0.21875 1.390625 -0.671875l0 2.421875q-0.671875 0.421875 -1.375 0.59375q-0.703125 0.171875 -1.765625 0.171875zm11.967316 -0.1875l-0.546875 -1.40625l-0.078125 0q-0.71875 0.890625 -1.484375 1.25q-0.75 0.34375 -1.953125 0.34375q-1.5 0 -2.359375 -0.84375q-0.859375 -0.859375 -0.859375 -2.4375q0 -1.65625 1.15625 -2.4375q1.15625 -0.78125 3.484375 -0.875l1.796875 -0.046875l0 -0.453125q0 -1.578125 -1.609375 -1.578125q-1.25 0 -2.921875 0.75l-0.9375 -1.9218597q1.78125 -0.921875 3.96875 -0.921875q2.09375 0 3.203125 0.90625q1.109375 0.90623474 1.109375 2.7656097l0 6.90625l-1.96875 0zm-0.84375 -4.8125l-1.09375 0.046875q-1.234375 0.03125 -1.84375 0.4375q-0.59375 0.40625 -0.59375 1.25q0 1.1875 1.375 1.1875q0.984375 0 1.5625 -0.5625q0.59375 -0.5625 0.59375 -1.5l0 -0.859375zm8.346558 4.8125l-2.828125 0l0 -14.437485l2.828125 0l0 14.437485z" fill-rule="nonzero"></path><path fill="#000000" d="m291.20016 279.3075l0.9375 0q1.359375 0 2.0 -0.453125q0.65625 -0.453125 0.65625 -1.421875q0 -0.96875 -0.671875 -1.375q-0.65625 -0.40625 -2.046875 -0.40625l-0.875 0l0 3.65625zm0 2.34375l0 5.203125l-2.875 0l0 -13.5625l3.953125 0q2.765625 0 4.09375 1.015625q1.328125 1.0 1.328125 3.046875q0 1.203125 -0.65625 2.140625q-0.65625 0.921875 -1.875 1.453125q3.0625 4.5625 4.0 5.90625l-3.1875 0l-3.25 -5.203125l-1.53125 0zm13.519165 -3.34375q-0.90625 0 -1.421875 0.578125q-0.5 0.5625 -0.578125 1.609375l3.96875 0q-0.015625 -1.046875 -0.546875 -1.609375q-0.515625 -0.578125 -1.421875 -0.578125zm0.390625 8.734375q-2.5 0 -3.90625 -1.375q-1.40625 -1.390625 -1.40625 -3.921875q0 -2.609375 1.296875 -4.03125q1.296875 -1.421875 3.609375 -1.421875q2.1875 0 3.40625 1.25q1.234375 1.25 1.234375 3.453125l0 1.375l-6.6875 0q0.046875 1.203125 0.71875 1.890625q0.671875 0.671875 1.875 0.671875q0.9375 0 1.765625 -0.1875q0.84375 -0.203125 1.75 -0.625l0 2.1875q-0.75 0.375 -1.59375 0.546875q-0.84375 0.1875 -2.0625 0.1875zm10.553741 0q-4.84375 0 -4.84375 -5.3125q0 -2.65625 1.3125 -4.046875q1.3125 -1.390625 3.78125 -1.390625q1.796875 0 3.21875 0.703125l-0.828125 2.1875q-0.671875 -0.265625 -1.25 -0.4375q-0.578125 -0.171875 -1.140625 -0.171875q-2.21875 0 -2.21875 3.125q0 3.046875 2.21875 3.046875q0.8125 0 1.5 -0.21875q0.703125 -0.21875 1.390625 -0.671875l0 2.421875q-0.671875 0.421875 -1.375 0.59375q-0.703125 0.171875 -1.765625 0.171875zm11.17041 -10.75q0.5625 0 0.953125 0.078125l-0.21875 2.65625q-0.34375 -0.09375 -0.828125 -0.09375q-1.359375 0 -2.125 0.703125q-0.75 0.6875 -0.75 1.9375l0 5.28125l-2.828125 0l0 -10.375l2.140625 0l0.421875 1.75l0.140625 0q0.484375 -0.875 1.296875 -1.40625q0.828125 -0.53125 1.796875 -0.53125zm10.018707 10.5625l-0.375 -1.328125l-0.15625 0q-0.453125 0.71875 -1.296875 1.125q-0.828125 0.390625 -1.890625 0.390625q-1.828125 0 -2.765625 -0.96875q-0.921875 -0.984375 -0.921875 -2.828125l0 -6.765625l2.84375 0l0 6.0625q0 1.125 0.390625 1.6875q0.40625 0.5625 1.265625 0.5625q1.1875 0 1.71875 -0.796875q0.53125 -0.796875 0.53125 -2.640625l0 -4.875l2.828125 0l0 10.375l-2.171875 0zm4.792633 -13.046875q0 -1.390625 1.546875 -1.390625q1.53125 0 1.53125 1.390625q0 0.65625 -0.390625 1.03125q-0.375 0.359375 -1.140625 0.359375q-1.546875 0 -1.546875 -1.390625zm2.953125 13.046875l-2.828125 0l0 -10.375l2.828125 0l0 10.375zm7.240326 -2.0625q0.734375 0 1.78125 -0.328125l0 2.109375q-1.0625 0.46875 -2.609375 0.46875q-1.6875 0 -2.46875 -0.859375q-0.765625 -0.859375 -0.765625 -2.578125l0 -5.0l-1.359375 0l0 -1.1875l1.5625 -0.953125l0.8125 -2.1875l1.8125 0l0 2.203125l2.90625 0l0 2.125l-2.90625 0l0 5.0q0 0.609375 0.328125 0.90625q0.34375 0.28125 0.90625 0.28125zm8.020203 -6.484375q-0.90625 0 -1.421875 0.578125q-0.5 0.5625 -0.578125 1.609375l3.96875 0q-0.015625 -1.046875 -0.546875 -1.609375q-0.515625 -0.578125 -1.421875 -0.578125zm0.390625 8.734375q-2.5 0 -3.90625 -1.375q-1.40625 -1.390625 -1.40625 -3.921875q0 -2.609375 1.296875 -4.03125q1.296875 -1.421875 3.609375 -1.421875q2.1875 0 3.40625 1.25q1.234375 1.25 1.234375 3.453125l0 1.375l-6.6875 0q0.046875 1.203125 0.71875 1.890625q0.671875 0.671875 1.875 0.671875q0.9375 0 1.765625 -0.1875q0.84375 -0.203125 1.75 -0.625l0 2.1875q-0.75 0.375 -1.59375 0.546875q-0.84375 0.1875 -2.0625 0.1875zm12.131866 -10.75q0.5625 0 0.953125 0.078125l-0.21875 2.65625q-0.34375 -0.09375 -0.828125 -0.09375q-1.359375 0 -2.125 0.703125q-0.75 0.6875 -0.75 1.9375l0 5.28125l-2.828125 0l0 -10.375l2.140625 0l0.421875 1.75l0.140625 0q0.484375 -0.875 1.296875 -1.40625q0.828125 -0.53125 1.796875 -0.53125z" fill-rule="nonzero"></path><path fill="#000000" fill-opacity="0.0" d="m364.17584 194.5643l104.0 0" fill-rule="evenodd"></path><path stroke="#000000" stroke-width="2.0" stroke-linejoin="round" stroke-linecap="butt" d="m364.17584 194.5643l92.0 0" fill-rule="evenodd"></path><path fill="#000000" stroke="#000000" stroke-width="2.0" stroke-linecap="butt" d="m456.17584 197.86777l9.076202 -3.3034668l-9.076202 -3.3034668z" fill-rule="evenodd"></path><path fill="#000000" fill-opacity="0.0" d="m391.34384 237.93439l221.82675 0l0 83.27557l-221.82675 0z" fill-rule="evenodd"></path><path fill="#000000" d="m458.86017 257.3075l0.9375 0q1.359375 0 2.0 -0.453125q0.65625 -0.453125 0.65625 -1.4218597q0 -0.96875 -0.671875 -1.375q-0.65625 -0.40625 -2.046875 -0.40625l-0.875 0l0 3.6562347zm0 2.34375l0 5.203125l-2.875 0l0 -13.562485l3.953125 0q2.765625 0 4.09375 1.015625q1.328125 1.0 1.328125 3.046875q0 1.2031097 -0.65625 2.1406097q-0.65625 0.921875 -1.875 1.453125q3.0625 4.5625 4.0 5.90625l-3.1875 0l-3.25 -5.203125l-1.53125 0zm13.519165 -3.34375q-0.90625 0 -1.421875 0.578125q-0.5 0.5625 -0.578125 1.609375l3.96875 0q-0.015625 -1.046875 -0.546875 -1.609375q-0.515625 -0.578125 -1.421875 -0.578125zm0.390625 8.734375q-2.5 0 -3.90625 -1.375q-1.40625 -1.390625 -1.40625 -3.921875q0 -2.609375 1.296875 -4.0312347q1.296875 -1.421875 3.609375 -1.421875q2.1875 0 3.40625 1.25q1.234375 1.2499847 1.234375 3.4531097l0 1.375l-6.6875 0q0.046875 1.203125 0.71875 1.890625q0.671875 0.671875 1.875 0.671875q0.9375 0 1.765625 -0.1875q0.84375 -0.203125 1.75 -0.625l0 2.1875q-0.75 0.375 -1.59375 0.546875q-0.84375 0.1875 -2.0625 0.1875zm10.553741 0q-4.84375 0 -4.84375 -5.3125q0 -2.65625 1.3125 -4.0468597q1.3125 -1.390625 3.78125 -1.390625q1.796875 0 3.21875 0.703125l-0.828125 2.1874847q-0.671875 -0.265625 -1.25 -0.4375q-0.578125 -0.171875 -1.140625 -0.171875q-2.21875 0 -2.21875 3.125q0 3.046875 2.21875 3.046875q0.8125 0 1.5 -0.21875q0.703125 -0.21875 1.390625 -0.671875l0 2.421875q-0.671875 0.421875 -1.375 0.59375q-0.703125 0.171875 -1.765625 0.171875zm11.170441 -10.749985q0.5625 0 0.953125 0.078125l-0.21875 2.6562347q-0.34375 -0.09375 -0.828125 -0.09375q-1.359375 0 -2.125 0.703125q-0.75 0.6875 -0.75 1.9375l0 5.28125l-2.828125 0l0 -10.374985l2.140625 0l0.421875 1.7499847l0.140625 0q0.484375 -0.87498474 1.296875 -1.4062347q0.828125 -0.53125 1.796875 -0.53125zm10.018707 10.562485l-0.375 -1.328125l-0.15625 0q-0.453125 0.71875 -1.296875 1.125q-0.828125 0.390625 -1.890625 0.390625q-1.828125 0 -2.765625 -0.96875q-0.921875 -0.984375 -0.921875 -2.828125l0 -6.7656097l2.84375 0l0 6.0624847q0 1.125 0.390625 1.6875q0.40625 0.5625 1.265625 0.5625q1.1875 0 1.71875 -0.796875q0.53125 -0.796875 0.53125 -2.640625l0 -4.8749847l2.828125 0l0 10.374985l-2.171875 0zm4.792633 -13.04686q0 -1.390625 1.546875 -1.390625q1.53125 0 1.53125 1.390625q0 0.65625 -0.390625 1.03125q-0.375 0.359375 -1.140625 0.359375q-1.546875 0 -1.546875 -1.390625zm2.953125 13.04686l-2.828125 0l0 -10.374985l2.828125 0l0 10.374985zm7.2402954 -2.0625q0.734375 0 1.78125 -0.328125l0 2.109375q-1.0625 0.46875 -2.609375 0.46875q-1.6875 0 -2.46875 -0.859375q-0.765625 -0.859375 -0.765625 -2.578125l0 -5.0l-1.359375 0l0 -1.1874847l1.5625 -0.953125l0.8125 -2.1875l1.8125 0l0 2.203125l2.90625 0l0 2.1249847l-2.90625 0l0 5.0q0 0.609375 0.328125 0.90625q0.34375 0.28125 0.90625 0.28125zm3.5983276 -10.98436q0 -1.390625 1.546875 -1.390625q1.53125 0 1.53125 1.390625q0 0.65625 -0.390625 1.03125q-0.375 0.359375 -1.140625 0.359375q-1.546875 0 -1.546875 -1.390625zm2.953125 13.04686l-2.828125 0l0 -10.374985l2.828125 0l0 10.374985zm12.443481 0l-2.828125 0l0 -6.0625q0 -1.125 -0.40625 -1.671875q-0.390625 -0.5625 -1.265625 -0.5625q-1.1875 0 -1.71875 0.796875q-0.53125 0.78125 -0.53125 2.625l0 4.875l-2.828125 0l0 -10.374985l2.15625 0l0.390625 1.328125l0.15625 0q0.46875 -0.75 1.296875 -1.125q0.828125 -0.390625 1.890625 -0.390625q1.8125 0 2.75 0.984375q0.9375 0.96873474 0.9375 2.8124847l0 6.765625zm11.714478 -10.374985l0 1.4375l-1.625 0.42185974q0.4375 0.6875 0.4375 1.5625q0 1.671875 -1.171875 2.609375q-1.15625 0.921875 -3.21875 0.921875l-0.515625 -0.03125l-0.40625 -0.046875q-0.4375 0.34375 -0.4375 0.75q0 0.609375 1.546875 0.609375l1.765625 0q1.703125 0 2.59375 0.734375q0.90625 0.734375 0.90625 2.15625q0 1.8125 -1.515625 2.8125q-1.515625 1.0 -4.359375 1.0q-2.171875 0 -3.3125 -0.765625q-1.140625 -0.75 -1.140625 -2.109375q0 -0.9375 0.578125 -1.578125q0.578125 -0.625 1.71875 -0.890625q-0.4375 -0.1875 -0.765625 -0.609375q-0.328125 -0.421875 -0.328125 -0.890625q0 -0.59375 0.34375 -0.984375q0.34375 -0.40625 1.0 -0.78125q-0.8125 -0.34375 -1.296875 -1.125q-0.484375 -0.78125 -0.484375 -1.84375q0 -1.703125 1.109375 -2.6249847q1.109375 -0.921875 3.15625 -0.921875q0.4375 0 1.03125 0.078125q0.59375 0.078125 0.765625 0.109375l3.625 0zm-8.015625 11.843735q0 0.578125 0.5625 0.90625q0.5625 0.34375 1.578125 0.34375q1.515625 0 2.375 -0.421875q0.875 -0.40625 0.875 -1.140625q0 -0.578125 -0.515625 -0.8125q-0.515625 -0.21875 -1.578125 -0.21875l-1.46875 0q-0.78125 0 -1.3125 0.359375q-0.515625 0.375 -0.515625 0.984375zm1.03125 -8.453125q0 0.859375 0.390625 1.34375q0.390625 0.484375 1.171875 0.484375q0.796875 0 1.171875 -0.484375q0.375 -0.484375 0.375 -1.34375q0 -1.859375 -1.546875 -1.859375q-1.5625 0 -1.5625 1.859375z" fill-rule="nonzero"></path><path fill="#000000" d="m468.49896 286.85437l-3.265625 -10.640625l-0.09375 0q0.1875 3.25 0.1875 4.328125l0 6.3125l-2.578125 0l0 -13.5625l3.921875 0l3.203125 10.375l0.0625 0l3.40625 -10.375l3.90625 0l0 13.5625l-2.671875 0l0 -6.421875q0 -0.453125 0 -1.046875q0.015625 -0.59375 0.140625 -3.15625l-0.09375 0l-3.5 10.625l-2.625 0zm18.215454 0l-0.546875 -1.40625l-0.078125 0q-0.71875 0.890625 -1.484375 1.25q-0.75 0.34375 -1.953125 0.34375q-1.5 0 -2.359375 -0.84375q-0.859375 -0.859375 -0.859375 -2.4375q0 -1.65625 1.15625 -2.4375q1.15625 -0.78125 3.484375 -0.875l1.796875 -0.046875l0 -0.453125q0 -1.578125 -1.609375 -1.578125q-1.25 0 -2.921875 0.75l-0.9375 -1.921875q1.78125 -0.921875 3.96875 -0.921875q2.09375 0 3.203125 0.90625q1.109375 0.90625 1.109375 2.765625l0 6.90625l-1.96875 0zm-0.84375 -4.8125l-1.09375 0.046875q-1.234375 0.03125 -1.84375 0.4375q-0.59375 0.40625 -0.59375 1.25q0 1.1875 1.375 1.1875q0.984375 0 1.5625 -0.5625q0.59375 -0.5625 0.59375 -1.5l0 -0.859375zm15.096558 4.8125l-2.828125 0l0 -6.0625q0 -1.125 -0.40625 -1.671875q-0.390625 -0.5625 -1.265625 -0.5625q-1.1875 0 -1.71875 0.796875q-0.53125 0.78125 -0.53125 2.625l0 4.875l-2.828125 0l0 -10.375l2.15625 0l0.390625 1.328125l0.15625 0q0.46875 -0.75 1.296875 -1.125q0.828125 -0.390625 1.890625 -0.390625q1.8125 0 2.75 0.984375q0.9375 0.96875 0.9375 2.8125l0 6.765625zm9.277008 0l-0.546875 -1.40625l-0.078125 0q-0.71875 0.890625 -1.484375 1.25q-0.75 0.34375 -1.953125 0.34375q-1.5 0 -2.359375 -0.84375q-0.859375 -0.859375 -0.859375 -2.4375q0 -1.65625 1.15625 -2.4375q1.15625 -0.78125 3.484375 -0.875l1.796875 -0.046875l0 -0.453125q0 -1.578125 -1.609375 -1.578125q-1.25 0 -2.921875 0.75l-0.9375 -1.921875q1.78125 -0.921875 3.96875 -0.921875q2.09375 0 3.203125 0.90625q1.1094055 0.90625 1.1094055 2.765625l0 6.90625l-1.9687805 0zm-0.84375 -4.8125l-1.09375 0.046875q-1.234375 0.03125 -1.84375 0.4375q-0.59375 0.40625 -0.59375 1.25q0 1.1875 1.375 1.1875q0.984375 0 1.5625 -0.5625q0.59375 -0.5625 0.59375 -1.5l0 -0.859375zm14.549713 -5.5625l0 1.4375l-1.625 0.421875q0.4375 0.6875 0.4375 1.5625q0 1.671875 -1.171875 2.609375q-1.15625 0.921875 -3.21875 0.921875l-0.515625 -0.03125l-0.40625 -0.046875q-0.4375 0.34375 -0.4375 0.75q0 0.609375 1.546875 0.609375l1.765625 0q1.703125 0 2.59375 0.734375q0.90625 0.734375 0.90625 2.15625q0 1.8125 -1.515625 2.8125q-1.515625 1.0 -4.359375 1.0q-2.171875 0 -3.3125 -0.765625q-1.140625 -0.75 -1.140625 -2.109375q0 -0.9375 0.578125 -1.578125q0.578125 -0.625 1.71875 -0.890625q-0.4375 -0.1875 -0.765625 -0.609375q-0.328125 -0.421875 -0.328125 -0.890625q0 -0.59375 0.34375 -0.984375q0.34375 -0.40625 1.0 -0.78125q-0.8125 -0.34375 -1.296875 -1.125q-0.484375 -0.78125 -0.484375 -1.84375q0 -1.703125 1.109375 -2.625q1.109375 -0.921875 3.15625 -0.921875q0.4375 0 1.03125 0.078125q0.59375 0.078125 0.765625 0.109375l3.625 0zm-8.015625 11.84375q0 0.578125 0.5625 0.90625q0.5625 0.34375 1.578125 0.34375q1.515625 0 2.375 -0.421875q0.875 -0.40625 0.875 -1.140625q0 -0.578125 -0.515625 -0.8125q-0.515625 -0.21875 -1.578125 -0.21875l-1.46875 0q-0.78125 0 -1.3125 0.359375q-0.515625 0.375 -0.515625 0.984375zm1.03125 -8.453125q0 0.859375 0.390625 1.34375q0.390625 0.484375 1.171875 0.484375q0.796875 0 1.171875 -0.484375q0.375 -0.484375 0.375 -1.34375q0 -1.859375 -1.546875 -1.859375q-1.5625 0 -1.5625 1.859375zm12.789673 -1.5625q-0.90625 0 -1.421875 0.578125q-0.5 0.5625 -0.578125 1.609375l3.96875 0q-0.015625 -1.046875 -0.546875 -1.609375q-0.515625 -0.578125 -1.421875 -0.578125zm0.390625 8.734375q-2.5 0 -3.90625 -1.375q-1.40625 -1.390625 -1.40625 -3.921875q0 -2.609375 1.296875 -4.03125q1.296875 -1.421875 3.609375 -1.421875q2.1875 0 3.40625 1.25q1.234375 1.25 1.234375 3.453125l0 1.375l-6.6875 0q0.046875 1.203125 0.71875 1.890625q0.671875 0.671875 1.875 0.671875q0.9375 0 1.765625 -0.1875q0.84375 -0.203125 1.75 -0.625l0 2.1875q-0.75 0.375 -1.59375 0.546875q-0.84375 0.1875 -2.0625 0.1875zm12.131897 -10.75q0.5625 0 0.953125 0.078125l-0.21875 2.65625q-0.34375 -0.09375 -0.828125 -0.09375q-1.359375 0 -2.125 0.703125q-0.75 0.6875 -0.75 1.9375l0 5.28125l-2.828125 0l0 -10.375l2.140625 0l0.421875 1.75l0.140625 0q0.484375 -0.875 1.296875 -1.40625q0.828125 -0.53125 1.796875 -0.53125z" fill-rule="nonzero"></path><path fill="#000000" fill-opacity="0.0" d="m536.33594 194.5643l265.10236 0" fill-rule="evenodd"></path><path stroke="#000000" stroke-width="2.0" stroke-linejoin="round" stroke-linecap="butt" stroke-dasharray="2.0,6.0" d="m536.33594 194.5643l253.10236 0" fill-rule="evenodd"></path><path fill="#000000" stroke="#000000" stroke-width="2.0" stroke-linecap="butt" d="m789.4383 197.86777l9.076233 -3.3034668l-9.076233 -3.3034668z" fill-rule="evenodd"></path><path fill="#ffffff" d="m468.17847 194.5643l0 0c0 -18.481964 15.257568 -33.46457 34.078766 -33.46457l0 0c9.038239 0 17.706268 3.5257263 24.09732 9.801544c6.390991 6.275833 9.981384 14.787674 9.981384 23.663025l0 0c0 18.48198 -15.257568 33.46457 -34.078705 33.46457l0 0c-18.821198 0 -34.078766 -14.98259 -34.078766 -33.46457z" fill-rule="evenodd"></path><path stroke="#c27ba0" stroke-width="8.0" stroke-linejoin="round" stroke-linecap="butt" d="m468.17847 194.5643l0 0c0 -18.481964 15.257568 -33.46457 34.078766 -33.46457l0 0c9.038239 0 17.706268 3.5257263 24.09732 9.801544c6.390991 6.275833 9.981384 14.787674 9.981384 23.663025l0 0c0 18.48198 -15.257568 33.46457 -34.078705 33.46457l0 0c-18.821198 0 -34.078766 -14.98259 -34.078766 -33.46457z" fill-rule="evenodd"></path><path fill="#ffffff" d="m296.01837 194.5643l0 0c0 -18.481964 15.257568 -33.46457 34.078735 -33.46457l0 0c9.038239 0 17.706299 3.5257263 24.09732 9.801544c6.390991 6.275833 9.981415 14.787674 9.981415 23.663025l0 0c0 18.48198 -15.257568 33.46457 -34.078735 33.46457l0 0c-18.821167 0 -34.078735 -14.98259 -34.078735 -33.46457z" fill-rule="evenodd"></path><path stroke="#980000" stroke-width="8.0" stroke-linejoin="round" stroke-linecap="butt" d="m296.01837 194.5643l0 0c0 -18.481964 15.257568 -33.46457 34.078735 -33.46457l0 0c9.038239 0 17.706299 3.5257263 24.09732 9.801544c6.390991 6.275833 9.981415 14.787674 9.981415 23.663025l0 0c0 18.48198 -15.257568 33.46457 -34.078735 33.46457l0 0c-18.821167 0 -34.078735 -14.98259 -34.078735 -33.46457z" fill-rule="evenodd"></path><path fill="#000000" fill-opacity="0.0" d="m724.5906 237.93439l221.82672 0l0 83.27557l-221.82672 0z" fill-rule="evenodd"></path><path fill="#000000" d="m769.50006 253.49501q-1.625 0 -2.515625 1.21875q-0.890625 1.21875 -0.890625 3.3906097q0 4.546875 3.40625 4.546875q1.421875 0 3.453125 -0.71875l0 2.40625q-1.65625 0.703125 -3.71875 0.703125q-2.96875 0 -4.53125 -1.796875q-1.5625 -1.796875 -1.5625 -5.15625q0 -2.1093597 0.765625 -3.7031097q0.765625 -1.59375 2.203125 -2.4375q1.453125 -0.859375 3.390625 -0.859375q1.96875 0 3.96875 0.96875l-0.921875 2.328125q-0.765625 -0.359375 -1.546875 -0.625q-0.765625 -0.265625 -1.5 -0.265625zm15.481628 11.35936l-2.828125 0l0 -6.0625q0 -2.234375 -1.671875 -2.234375q-1.1875 0 -1.71875 0.8125q-0.53125 0.796875 -0.53125 2.609375l0 4.875l-2.828125 0l0 -14.437485l2.828125 0l0 2.9375q0 0.34375 -0.0625 1.625l-0.0625 0.828125l0.140625 0q0.953125 -1.515625 3.015625 -1.515625q1.828125 0 2.765625 0.984375q0.953125 0.98435974 0.953125 2.8124847l0 6.765625zm2.5582275 -13.04686q0 -1.390625 1.546875 -1.390625q1.53125 0 1.53125 1.390625q0 0.65625 -0.390625 1.03125q-0.375 0.359375 -1.140625 0.359375q-1.546875 0 -1.546875 -1.390625zm2.953125 13.04686l-2.828125 0l0 -10.374985l2.828125 0l0 10.374985zm7.1622314 -8.546875q-0.90625 0 -1.421875 0.578125q-0.5 0.5625 -0.578125 1.609375l3.96875 0q-0.015625 -1.046875 -0.546875 -1.609375q-0.515625 -0.578125 -1.421875 -0.578125zm0.390625 8.734375q-2.5 0 -3.90625 -1.375q-1.40625 -1.390625 -1.40625 -3.921875q0 -2.609375 1.296875 -4.0312347q1.296875 -1.421875 3.609375 -1.421875q2.1875 0 3.40625 1.25q1.234375 1.2499847 1.234375 3.4531097l0 1.375l-6.6875 0q0.046875 1.203125 0.71875 1.890625q0.671875 0.671875 1.875 0.671875q0.9375 0 1.765625 -0.1875q0.84375 -0.203125 1.75 -0.625l0 2.1875q-0.75 0.375 -1.59375 0.546875q-0.84375 0.1875 -2.0625 0.1875zm12.069336 -8.4375l-2.453125 0l0 8.25l-2.828125 0l0 -8.25l-1.5625 0l0 -1.3593597l1.5625 -0.765625l0 -0.765625q0 -1.765625 0.875 -2.578125q0.875 -0.8125 2.796875 -0.8125q1.453125 0 2.59375 0.421875l-0.71875 2.078125q-0.84375 -0.265625 -1.578125 -0.265625q-0.59375 0 -0.875 0.359375q-0.265625 0.359375 -0.265625 0.921875l0 0.640625l2.453125 0l0 2.1249847zm18.866943 1.453125q0 3.359375 -1.671875 5.171875q-1.671875 1.8125 -4.78125 1.8125q-3.125 0 -4.796875 -1.8125q-1.65625 -1.8125 -1.65625 -5.1875q0 -3.3906097 1.671875 -5.1718597q1.671875 -1.796875 4.796875 -1.796875q3.125 0 4.78125 1.8125q1.65625 1.796875 1.65625 5.1718597zm-9.890625 0q0 2.265625 0.859375 3.421875q0.859375 1.140625 2.578125 1.140625q3.4375 0 3.4375 -4.5625q0 -4.5937347 -3.421875 -4.5937347q-1.71875 0 -2.59375 1.15625q-0.859375 1.15625 -0.859375 3.4374847zm17.91101 6.984375q-1.828125 0 -2.875 -1.328125l-0.140625 0q0.140625 1.296875 0.140625 1.5l0 4.203125l-2.828125 0l0 -14.937485l2.296875 0l0.40625 1.34375l0.125 0q1.0 -1.53125 2.9375 -1.53125q1.84375 0 2.875 1.421875q1.046875 1.4062347 1.046875 3.9374847q0 1.65625 -0.484375 2.890625q-0.484375 1.21875 -1.390625 1.859375q-0.90625 0.640625 -2.109375 0.640625zm-0.84375 -8.484375q-1.046875 0 -1.53125 0.640625q-0.484375 0.640625 -0.5 2.125l0 0.3125q0 1.671875 0.5 2.390625q0.5 0.71875 1.578125 0.71875q1.890625 0 1.890625 -3.125q0 -1.53125 -0.46875 -2.296875q-0.46875 -0.765625 -1.46875 -0.765625zm11.243408 -0.25q-0.90625 0 -1.421875 0.578125q-0.5 0.5625 -0.578125 1.609375l3.96875 0q-0.015625 -1.046875 -0.546875 -1.609375q-0.515625 -0.578125 -1.421875 -0.578125zm0.390625 8.734375q-2.5 0 -3.90625 -1.375q-1.40625 -1.390625 -1.40625 -3.921875q0 -2.609375 1.296875 -4.0312347q1.296875 -1.421875 3.609375 -1.421875q2.1875 0 3.40625 1.25q1.234375 1.2499847 1.234375 3.4531097l0 1.375l-6.6875 0q0.046875 1.203125 0.71875 1.890625q0.671875 0.671875 1.875 0.671875q0.9375 0 1.765625 -0.1875q0.84375 -0.203125 1.75 -0.625l0 2.1875q-0.75 0.375 -1.59375 0.546875q-0.84375 0.1875 -2.0625 0.1875zm12.131836 -10.749985q0.5625 0 0.953125 0.078125l-0.21875 2.6562347q-0.34375 -0.09375 -0.828125 -0.09375q-1.359375 0 -2.125 0.703125q-0.75 0.6875 -0.75 1.9375l0 5.28125l-2.828125 0l0 -10.374985l2.140625 0l0.421875 1.7499847l0.140625 0q0.484375 -0.87498474 1.296875 -1.4062347q0.828125 -0.53125 1.796875 -0.53125zm9.268738 10.562485l-0.546875 -1.40625l-0.078125 0q-0.71875 0.890625 -1.484375 1.25q-0.75 0.34375 -1.953125 0.34375q-1.5 0 -2.359375 -0.84375q-0.859375 -0.859375 -0.859375 -2.4375q0 -1.65625 1.15625 -2.4375q1.15625 -0.78125 3.484375 -0.875l1.796875 -0.046875l0 -0.453125q0 -1.578125 -1.609375 -1.578125q-1.25 0 -2.921875 0.75l-0.9375 -1.9218597q1.78125 -0.921875 3.96875 -0.921875q2.09375 0 3.203125 0.90625q1.109375 0.90623474 1.109375 2.7656097l0 6.90625l-1.96875 0zm-0.84375 -4.8125l-1.09375 0.046875q-1.234375 0.03125 -1.84375 0.4375q-0.59375 0.40625 -0.59375 1.25q0 1.1875 1.375 1.1875q0.984375 0 1.5625 -0.5625q0.59375 -0.5625 0.59375 -1.5l0 -0.859375zm9.893433 2.75q0.734375 0 1.78125 -0.328125l0 2.109375q-1.0625 0.46875 -2.609375 0.46875q-1.6875 0 -2.46875 -0.859375q-0.765625 -0.859375 -0.765625 -2.578125l0 -5.0l-1.359375 0l0 -1.1874847l1.5625 -0.953125l0.8125 -2.1875l1.8125 0l0 2.203125l2.90625 0l0 2.1249847l-2.90625 0l0 5.0q0 0.609375 0.328125 0.90625q0.34375 0.28125 0.90625 0.28125zm3.5983276 -10.98436q0 -1.390625 1.546875 -1.390625q1.53125 0 1.53125 1.390625q0 0.65625 -0.390625 1.03125q-0.375 0.359375 -1.140625 0.359375q-1.546875 0 -1.546875 -1.390625zm2.953125 13.04686l-2.828125 0l0 -10.374985l2.828125 0l0 10.374985zm12.443481 0l-2.828125 0l0 -6.0625q0 -1.125 -0.40625 -1.671875q-0.390625 -0.5625 -1.265625 -0.5625q-1.1875 0 -1.71875 0.796875q-0.53125 0.78125 -0.53125 2.625l0 4.875l-2.828125 0l0 -10.374985l2.15625 0l0.390625 1.328125l0.15625 0q0.46875 -0.75 1.296875 -1.125q0.828125 -0.390625 1.890625 -0.390625q1.8125 0 2.75 0.984375q0.9375 0.96873474 0.9375 2.8124847l0 6.765625zm11.714478 -10.374985l0 1.4375l-1.625 0.42185974q0.4375 0.6875 0.4375 1.5625q0 1.671875 -1.171875 2.609375q-1.15625 0.921875 -3.21875 0.921875l-0.515625 -0.03125l-0.40625 -0.046875q-0.4375 0.34375 -0.4375 0.75q0 0.609375 1.546875 0.609375l1.765625 0q1.703125 0 2.59375 0.734375q0.90625 0.734375 0.90625 2.15625q0 1.8125 -1.515625 2.8125q-1.515625 1.0 -4.359375 1.0q-2.171875 0 -3.3125 -0.765625q-1.140625 -0.75 -1.140625 -2.109375q0 -0.9375 0.578125 -1.578125q0.578125 -0.625 1.71875 -0.890625q-0.4375 -0.1875 -0.765625 -0.609375q-0.328125 -0.421875 -0.328125 -0.890625q0 -0.59375 0.34375 -0.984375q0.34375 -0.40625 1.0 -0.78125q-0.8125 -0.34375 -1.296875 -1.125q-0.484375 -0.78125 -0.484375 -1.84375q0 -1.703125 1.109375 -2.6249847q1.109375 -0.921875 3.15625 -0.921875q0.4375 0 1.03125 0.078125q0.59375 0.078125 0.765625 0.109375l3.625 0zm-8.015625 11.843735q0 0.578125 0.5625 0.90625q0.5625 0.34375 1.578125 0.34375q1.515625 0 2.375 -0.421875q0.875 -0.40625 0.875 -1.140625q0 -0.578125 -0.515625 -0.8125q-0.515625 -0.21875 -1.578125 -0.21875l-1.46875 0q-0.78125 0 -1.3125 0.359375q-0.515625 0.375 -0.515625 0.984375zm1.03125 -8.453125q0 0.859375 0.390625 1.34375q0.390625 0.484375 1.171875 0.484375q0.796875 0 1.171875 -0.484375q0.375 -0.484375 0.375 -1.34375q0 -1.859375 -1.546875 -1.859375q-1.5625 0 -1.5625 1.859375z" fill-rule="nonzero"></path><path fill="#000000" d="m817.48145 280.0575q0 3.359375 -1.671875 5.171875q-1.671875 1.8125 -4.78125 1.8125q-3.125 0 -4.796875 -1.8125q-1.65625 -1.8125 -1.65625 -5.1875q0 -3.390625 1.671875 -5.171875q1.671875 -1.796875 4.796875 -1.796875q3.125 0 4.78125 1.8125q1.65625 1.796875 1.65625 5.171875zm-9.890625 0q0 2.265625 0.859375 3.421875q0.859375 1.140625 2.578125 1.140625q3.4375 0 3.4375 -4.5625q0 -4.59375 -3.421875 -4.59375q-1.71875 0 -2.59375 1.15625q-0.859375 1.15625 -0.859375 3.4375zm17.94226 -1.453125l-2.453125 0l0 8.25l-2.828125 0l0 -8.25l-1.5625 0l0 -1.359375l1.5625 -0.765625l0 -0.765625q0 -1.765625 0.875 -2.578125q0.875 -0.8125 2.796875 -0.8125q1.453125 0 2.59375 0.421875l-0.71875 2.078125q-0.84375 -0.265625 -1.578125 -0.265625q-0.59375 0 -0.875 0.359375q-0.265625 0.359375 -0.265625 0.921875l0 0.640625l2.453125 0l0 2.125zm7.223816 0l-2.453125 0l0 8.25l-2.828125 0l0 -8.25l-1.5625 0l0 -1.359375l1.5625 -0.765625l0 -0.765625q0 -1.765625 0.875 -2.578125q0.875 -0.8125 2.796875 -0.8125q1.453125 0 2.59375 0.421875l-0.71875 2.078125q-0.84375 -0.265625 -1.578125 -0.265625q-0.59375 0 -0.875 0.359375q-0.265625 0.359375 -0.265625 0.921875l0 0.640625l2.453125 0l0 2.125zm1.3644409 -4.796875q0 -1.390625 1.546875 -1.390625q1.53125 0 1.53125 1.390625q0 0.65625 -0.390625 1.03125q-0.375 0.359375 -1.140625 0.359375q-1.546875 0 -1.546875 -1.390625zm2.953125 13.046875l-2.828125 0l0 -10.375l2.828125 0l0 10.375zm7.0840454 0.1875q-4.84375 0 -4.84375 -5.3125q0 -2.65625 1.3125 -4.046875q1.3125 -1.390625 3.78125 -1.390625q1.796875 0 3.21875 0.703125l-0.828125 2.1875q-0.671875 -0.265625 -1.25 -0.4375q-0.578125 -0.171875 -1.140625 -0.171875q-2.21875 0 -2.21875 3.125q0 3.046875 2.21875 3.046875q0.8125 0 1.5 -0.21875q0.703125 -0.21875 1.390625 -0.671875l0 2.421875q-0.671875 0.421875 -1.375 0.59375q-0.703125 0.171875 -1.765625 0.171875zm9.670471 -8.734375q-0.90625 0 -1.421875 0.578125q-0.5 0.5625 -0.578125 1.609375l3.96875 0q-0.015625 -1.046875 -0.546875 -1.609375q-0.515625 -0.578125 -1.421875 -0.578125zm0.390625 8.734375q-2.5 0 -3.90625 -1.375q-1.40625 -1.390625 -1.40625 -3.921875q0 -2.609375 1.296875 -4.03125q1.296875 -1.421875 3.609375 -1.421875q2.1875 0 3.40625 1.25q1.234375 1.25 1.234375 3.453125l0 1.375l-6.6875 0q0.046875 1.203125 0.71875 1.890625q0.671875 0.671875 1.875 0.671875q0.9375 0 1.765625 -0.1875q0.84375 -0.203125 1.75 -0.625l0 2.1875q-0.75 0.375 -1.59375 0.546875q-0.84375 0.1875 -2.0625 0.1875zm12.131836 -10.75q0.5625 0 0.953125 0.078125l-0.21875 2.65625q-0.34375 -0.09375 -0.828125 -0.09375q-1.359375 0 -2.125 0.703125q-0.75 0.6875 -0.75 1.9375l0 5.28125l-2.828125 0l0 -10.375l2.140625 0l0.421875 1.75l0.140625 0q0.484375 -0.875 1.296875 -1.40625q0.828125 -0.53125 1.796875 -0.53125z" fill-rule="nonzero"></path><path fill="#000000" fill-opacity="0.0" d="m123.86877 338.3281l710.3937 -1.0078735" fill-rule="evenodd"></path><path stroke="#000000" stroke-width="1.0" stroke-linejoin="round" stroke-linecap="butt" d="m129.86876 338.31958l698.3937 -0.99087524" fill-rule="evenodd"></path><path fill="#000000" stroke="#000000" stroke-width="1.0" stroke-linecap="butt" d="m129.86641 336.66785l-4.5357437 1.6581726l4.5404434 1.6452942z" fill-rule="evenodd"></path><path fill="#000000" stroke="#000000" stroke-width="1.0" stroke-linecap="butt" d="m828.26483 338.98044l4.5357056 -1.6581421l-4.5404053 -1.6452942z" fill-rule="evenodd"></path><path fill="#000000" fill-opacity="0.0" d="m123.86877 331.11548l710.3937 0l0 38.4252l-710.3937 0z" fill-rule="evenodd"></path><path fill="#000000" d="m434.9205 358.0355l-8.34375 0l0.296875 -1.359375l4.3125 -3.90625q0.9375 -0.859375 1.625 -1.515625q0.703125 -0.65625 1.140625 -1.234375q0.453125 -0.578125 0.671875 -1.140625q0.21875 -0.578125 0.21875 -1.265625q0 -0.921875 -0.5625 -1.453125q-0.546875 -0.546875 -1.5 -0.546875q-0.71875 0 -1.40625 0.265625q-0.671875 0.265625 -1.5 0.890625l-0.765625 -1.0625q1.78125 -1.4375 3.828125 -1.4375q1.640625 0 2.59375 0.828125q0.953125 0.828125 0.953125 2.265625q0 1.015625 -0.375 1.890625q-0.359375 0.859375 -1.21875 1.828125q-0.84375 0.953125 -2.71875 2.609375l-3.265625 2.84375l0 0.078125l6.28125 0l-0.265625 1.421875zm11.947388 -9.40625q0 2.734375 -0.734375 5.0q-0.71875 2.265625 -1.984375 3.4375q-1.25 1.15625 -2.90625 1.15625q-1.640625 0 -2.515625 -1.1875q-0.859375 -1.1875 -0.859375 -3.421875q0 -2.515625 0.75 -4.78125q0.765625 -2.265625 2.015625 -3.421875q1.25 -1.15625 2.859375 -1.15625q3.375 0 3.375 4.375zm-3.46875 -3.03125q-1.046875 0 -1.9375 1.078125q-0.890625 1.0625 -1.453125 2.984375q-0.546875 1.921875 -0.546875 3.9375q0 1.59375 0.453125 2.453125q0.46875 0.84375 1.5 0.84375q1.078125 0 1.9375 -1.046875q0.875 -1.0625 1.390625 -3.046875q0.53125 -2.0 0.53125 -4.203125q0 -3.0 -1.875 -3.0zm8.98114 8.09375l0.3125 -1.46875l4.453125 0l-0.3125 1.46875l-4.453125 0zm20.104706 -6.40625q0 1.4375 -0.9375 2.453125q-0.9375 1.0 -2.59375 1.296875l0 0.09375q1.15625 0.203125 1.8125 0.984375q0.65625 0.765625 0.65625 1.9375q0 1.234375 -0.578125 2.171875q-0.578125 0.9375 -1.6875 1.46875q-1.09375 0.53125 -2.609375 0.53125q-1.953125 0 -3.578125 -0.734375l0 -1.515625q0.875 0.453125 1.84375 0.703125q0.96875 0.234375 1.765625 0.234375q1.5 0 2.328125 -0.734375q0.84375 -0.734375 0.84375 -2.015625q0 -1.21875 -0.734375 -1.84375q-0.734375 -0.625 -2.046875 -0.625l-1.203125 0l0.28125 -1.328125l1.296875 0q1.53125 0 2.53125 -0.796875q1.015625 -0.8125 1.015625 -2.109375q0 -0.859375 -0.546875 -1.359375q-0.53125 -0.5 -1.453125 -0.5q-0.734375 0 -1.453125 0.25q-0.71875 0.25 -1.625 0.859375l-0.734375 -1.09375q1.796875 -1.34375 3.921875 -1.34375q1.671875 0 2.578125 0.8125q0.90625 0.8125 0.90625 2.203125zm10.447388 1.34375q0 2.734375 -0.734375 5.0q-0.71875 2.265625 -1.984375 3.4375q-1.25 1.15625 -2.90625 1.15625q-1.640625 0 -2.515625 -1.1875q-0.859375 -1.1875 -0.859375 -3.421875q0 -2.515625 0.75 -4.78125q0.765625 -2.265625 2.015625 -3.421875q1.25 -1.15625 2.859375 -1.15625q3.375 0 3.375 4.375zm-3.46875 -3.03125q-1.046875 0 -1.9375 1.078125q-0.890625 1.0625 -1.453125 2.984375q-0.546875 1.921875 -0.546875 3.9375q0 1.59375 0.453125 2.453125q0.46875 0.84375 1.5 0.84375q1.078125 0 1.9375 -1.046875q0.875 -1.0625 1.390625 -3.046875q0.53125 -2.0 0.53125 -4.203125q0 -3.0 -1.875 -3.0zm9.371765 2.265625l1.5625 0l0.6875 5.0625q0.09375 0.640625 0.171875 1.890625q0.09375 1.25 0.09375 2.0l0.0625 0q0.3125 -0.796875 0.796875 -1.84375q0.484375 -1.0625 0.71875 -1.453125l3.015625 -5.65625l1.65625 0l-6.46875 11.890625q-0.859375 1.609375 -1.703125 2.21875q-0.84375 0.625 -2.03125 0.625q-0.671875 0 -1.296875 -0.1875l0 -1.25q0.578125 0.15625 1.21875 0.15625q0.765625 0 1.296875 -0.46875q0.546875 -0.46875 1.0625 -1.390625l0.703125 -1.25l-1.546875 -10.34375zm12.273865 10.359375q-1.703125 0 -2.6875 -1.015625q-0.96875 -1.015625 -0.96875 -2.796875q0 -1.75 0.6875 -3.34375q0.703125 -1.609375 1.84375 -2.5q1.140625 -0.890625 2.515625 -0.890625q1.40625 0 2.125 0.625q0.71875 0.609375 0.71875 1.71875q0 1.671875 -1.546875 2.625q-1.53125 0.953125 -4.40625 0.953125l-0.296875 0l-0.046875 0.734375q0 1.21875 0.5625 1.90625q0.578125 0.671875 1.78125 0.671875q0.578125 0 1.1875 -0.15625q0.625 -0.171875 1.546875 -0.625l0 1.359375q-0.875 0.40625 -1.546875 0.5625q-0.65625 0.171875 -1.46875 0.171875zm1.296875 -9.21875q-0.953125 0 -1.796875 0.875q-0.84375 0.875 -1.28125 2.421875l0.109375 0q2.109375 0 3.234375 -0.546875q1.125 -0.5625 1.125 -1.609375q0 -0.484375 -0.34375 -0.8125q-0.328125 -0.328125 -1.046875 -0.328125zm9.263062 -1.328125q0.859375 0 1.53125 0.46875q0.671875 0.453125 1.03125 1.3125l0.109375 0l0.625 -1.59375l1.171875 0l-2.15625 10.171875l-1.234375 0l0.234375 -1.9375l-0.078125 0q-1.65625 2.125 -3.484375 2.125q-1.296875 0 -2.03125 -0.921875q-0.734375 -0.921875 -0.734375 -2.515625q0 -1.921875 0.65625 -3.578125q0.671875 -1.65625 1.828125 -2.59375q1.15625 -0.9375 2.53125 -0.9375zm-1.75 9.25q0.890625 0 1.78125 -0.859375q0.890625 -0.859375 1.4375 -2.234375q0.5625 -1.375 0.5625 -2.75q0 -0.953125 -0.515625 -1.515625q-0.515625 -0.578125 -1.359375 -0.578125q-0.96875 0 -1.796875 0.796875q-0.828125 0.796875 -1.3125 2.171875q-0.46875 1.359375 -0.46875 2.875q0 1.046875 0.4375 1.578125q0.4375 0.515625 1.234375 0.515625zm13.352173 -9.25q0.625 0 1.109375 0.140625l-0.34375 1.390625q-0.484375 -0.125 -0.96875 -0.125q-0.84375 0 -1.578125 0.5625q-0.734375 0.546875 -1.296875 1.546875q-0.546875 0.984375 -0.8125 2.1875l-0.984375 4.65625l-1.5625 0l2.171875 -10.171875l1.296875 0l-0.21875 1.890625l0.09375 0q0.671875 -0.890625 1.109375 -1.265625q0.4375 -0.390625 0.90625 -0.59375q0.484375 -0.21875 1.078125 -0.21875zm7.2159424 7.46875q0 1.453125 -1.03125 2.265625q-1.015625 0.8125 -2.875 0.8125q-1.5625 0 -2.828125 -0.640625l0 -1.46875q0.640625 0.390625 1.390625 0.609375q0.765625 0.203125 1.390625 0.203125q1.171875 0 1.765625 -0.453125q0.59375 -0.46875 0.59375 -1.1875q0 -0.53125 -0.328125 -0.890625q-0.3125 -0.375 -1.390625 -1.0q-1.203125 -0.671875 -1.703125 -1.3125q-0.5 -0.65625 -0.5 -1.546875q0 -1.28125 0.921875 -2.0625q0.9375 -0.796875 2.46875 -0.796875q1.59375 0 3.0625 0.6875l-0.5 1.28125l-0.515625 -0.234375q-0.9375 -0.40625 -2.046875 -0.40625q-0.859375 0 -1.359375 0.40625q-0.484375 0.40625 -0.484375 1.046875q0 0.515625 0.328125 0.890625q0.328125 0.375 1.359375 0.953125q1.0 0.5625 1.421875 0.96875q0.4375 0.390625 0.640625 0.859375q0.21875 0.453125 0.21875 1.015625z" fill-rule="nonzero"></path><path fill="#000000" fill-opacity="0.0" d="m23.518373 23.414698l201.95276 0l0 83.2756l-201.95276 0z" fill-rule="evenodd"></path><path fill="#000000" d="m70.62391 50.334698l-1.578125 0l0 -12.15625l-4.296875 0l0 -1.40625l10.15625 0l0 1.40625l-4.28125 0l0 12.15625zm12.867935 0l0 -6.578125q0 -1.25 -0.578125 -1.859375q-0.5625 -0.609375 -1.765625 -0.609375q-1.609375 0 -2.34375 0.875q-0.734375 0.875 -0.734375 2.859375l0 5.3125l-1.53125 0l0 -14.4375l1.53125 0l0 4.375q0 0.78125 -0.078125 1.296875l0.09375 0q0.453125 -0.71875 1.296875 -1.140625q0.84375 -0.421875 1.921875 -0.421875q1.859375 0 2.78125 0.890625q0.9375 0.875 0.9375 2.796875l0 6.640625l-1.53125 0zm6.028763 0l-1.53125 0l0 -10.171875l1.53125 0l0 10.171875zm-1.671875 -12.921875q0 -0.53125 0.25 -0.765625q0.265625 -0.25 0.65625 -0.25q0.375 0 0.640625 0.25q0.28125 0.25 0.28125 0.765625q0 0.515625 -0.28125 0.78125q-0.265625 0.25 -0.640625 0.25q-0.390625 0 -0.65625 -0.25q-0.25 -0.265625 -0.25 -0.78125zm11.4062195 10.140625q0 1.421875 -1.0625 2.203125q-1.046875 0.765625 -2.953125 0.765625q-2.03125 0 -3.15625 -0.640625l0 -1.4375q0.734375 0.375 1.5625 0.59375q0.84375 0.21875 1.625 0.21875q1.203125 0 1.84375 -0.390625q0.65625 -0.390625 0.65625 -1.171875q0 -0.59375 -0.515625 -1.015625q-0.515625 -0.421875 -2.0 -1.0q-1.421875 -0.53125 -2.03125 -0.921875q-0.59375 -0.390625 -0.890625 -0.890625q-0.28125 -0.515625 -0.28125 -1.203125q0 -1.25 1.0 -1.96875q1.015625 -0.71875 2.78125 -0.71875q1.640625 0 3.21875 0.671875l-0.546875 1.25q-1.53125 -0.625 -2.78125 -0.625q-1.09375 0 -1.65625 0.34375q-0.546875 0.34375 -0.546875 0.9375q0 0.421875 0.203125 0.703125q0.203125 0.28125 0.671875 0.546875q0.46875 0.265625 1.78125 0.75q1.8125 0.65625 2.4375 1.328125q0.640625 0.671875 0.640625 1.671875zm11.918106 2.96875q-0.984375 0 -1.8125 -0.359375q-0.8125 -0.375 -1.375 -1.140625l-0.109375 0q0.109375 0.890625 0.109375 1.6875l0 4.1875l-1.53125 0l0 -14.734375l1.25 0l0.203125 1.390625l0.078125 0q0.59375 -0.828125 1.375 -1.203125q0.796875 -0.375 1.8125 -0.375q2.03125 0 3.125 1.390625q1.09375 1.375 1.09375 3.875q0 2.5 -1.125 3.890625q-1.109375 1.390625 -3.09375 1.390625zm-0.21875 -9.234375q-1.5625 0 -2.265625 0.875q-0.6875 0.859375 -0.703125 2.734375l0 0.34375q0 2.140625 0.71875 3.0625q0.71875 0.921875 2.28125 0.921875q1.328125 0 2.0625 -1.0625q0.75 -1.0625 0.75 -2.9375q0 -1.90625 -0.75 -2.921875q-0.734375 -1.015625 -2.09375 -1.015625zm11.213669 9.234375q-2.25 0 -3.5625 -1.375q-1.296875 -1.375 -1.296875 -3.8125q0 -2.453125 1.203125 -3.90625q1.21875 -1.453125 3.265625 -1.453125q1.90625 0 3.015625 1.265625q1.125 1.25 1.125 3.3125l0 0.96875l-7.015625 0q0.046875 1.796875 0.90625 2.734375q0.859375 0.921875 2.421875 0.921875q1.640625 0 3.25 -0.6875l0 1.375q-0.8125 0.34375 -1.546875 0.5q-0.734375 0.15625 -1.765625 0.15625zm-0.40625 -9.25q-1.234375 0 -1.96875 0.796875q-0.71875 0.796875 -0.84375 2.203125l5.3125 0q0 -1.453125 -0.65625 -2.21875q-0.640625 -0.78125 -1.84375 -0.78125zm11.21682 -1.296875q0.6875 0 1.21875 0.109375l-0.203125 1.4375q-0.640625 -0.140625 -1.125 -0.140625q-1.234375 0 -2.109375 1.0q-0.875 1.0 -0.875 2.5l0 5.453125l-1.53125 0l0 -10.171875l1.265625 0l0.171875 1.890625l0.078125 0q0.5625 -1.0 1.359375 -1.53125q0.796875 -0.546875 1.75 -0.546875zm9.537415 7.578125q0 1.421875 -1.0625 2.203125q-1.046875 0.765625 -2.953125 0.765625q-2.03125 0 -3.15625 -0.640625l0 -1.4375q0.734375 0.375 1.5625 0.59375q0.84375 0.21875 1.625 0.21875q1.203125 0 1.84375 -0.390625q0.65625 -0.390625 0.65625 -1.171875q0 -0.59375 -0.515625 -1.015625q-0.515625 -0.421875 -2.0 -1.0q-1.421875 -0.53125 -2.03125 -0.921875q-0.59375 -0.390625 -0.890625 -0.890625q-0.28125 -0.515625 -0.28125 -1.203125q0 -1.25 1.0 -1.96875q1.015625 -0.71875 2.78125 -0.71875q1.640625 0 3.21875 0.671875l-0.546875 1.25q-1.53125 -0.625 -2.78125 -0.625q-1.09375 0 -1.65625 0.34375q-0.546875 0.34375 -0.546875 0.9375q0 0.421875 0.203125 0.703125q0.203125 0.28125 0.671875 0.546875q0.46875 0.265625 1.78125 0.75q1.8125 0.65625 2.4375 1.328125q0.640625 0.671875 0.640625 1.671875zm11.118713 -2.3125q0 2.484375 -1.25 3.890625q-1.2499847 1.390625 -3.4531097 1.390625q-1.375 0 -2.4375 -0.640625q-1.046875 -0.640625 -1.625 -1.828125q-0.578125 -1.203125 -0.578125 -2.8125q0 -2.484375 1.234375 -3.875q1.25 -1.390625 3.46875 -1.390625q2.125 0 3.3749847 1.421875q1.265625 1.421875 1.265625 3.84375zm-7.7499847 0q0 1.953125 0.78125 2.96875q0.78125 1.015625 2.296875 1.015625q1.515625 0 2.296875 -1.015625q0.78123474 -1.015625 0.78123474 -2.96875q0 -1.9375 -0.78123474 -2.9375q-0.78125 -1.015625 -2.3125 -1.015625q-1.515625 0 -2.296875 1.0q-0.765625 0.984375 -0.765625 2.953125zm17.205948 5.09375l0 -6.578125q0 -1.25 -0.578125 -1.859375q-0.5625 -0.609375 -1.765625 -0.609375q-1.59375 0 -2.34375 0.875q-0.734375 0.859375 -0.734375 2.84375l0 5.328125l-1.53125 0l0 -10.171875l1.25 0l0.25 1.390625l0.0625 0q0.484375 -0.75 1.328125 -1.15625q0.859375 -0.421875 1.90625 -0.421875q1.84375 0 2.765625 0.890625q0.921875 0.890625 0.921875 2.828125l0 6.640625l-1.53125 0zm10.875 0l-1.53125 0l0 -10.171875l1.53125 0l0 10.171875zm-1.671875 -12.921875q0 -0.53125 0.25 -0.765625q0.265625 -0.25 0.65625 -0.25q0.375 0 0.640625 0.25q0.28125 0.25 0.28125 0.765625q0 0.515625 -0.28125 0.78125q-0.265625 0.25 -0.640625 0.25q-0.390625 0 -0.65625 -0.25q-0.25 -0.265625 -0.25 -0.78125zm11.4062195 10.140625q0 1.421875 -1.0625 2.203125q-1.046875 0.765625 -2.953125 0.765625q-2.03125 0 -3.15625 -0.640625l0 -1.4375q0.734375 0.375 1.5625 0.59375q0.84375 0.21875 1.625 0.21875q1.203125 0 1.84375 -0.390625q0.65625 -0.390625 0.65625 -1.171875q0 -0.59375 -0.515625 -1.015625q-0.515625 -0.421875 -2.0 -1.0q-1.421875 -0.53125 -2.03125 -0.921875q-0.59375 -0.390625 -0.890625 -0.890625q-0.28125 -0.515625 -0.28125 -1.203125q0 -1.25 1.0 -1.96875q1.015625 -0.71875 2.78125 -0.71875q1.640625 0 3.21875 0.671875l-0.546875 1.25q-1.53125 -0.625 -2.78125 -0.625q-1.09375 0 -1.65625 0.34375q-0.546875 0.34375 -0.546875 0.9375q0 0.421875 0.203125 0.703125q0.203125 0.28125 0.671875 0.546875q0.46875 0.265625 1.78125 0.75q1.8125 0.65625 2.4375 1.328125q0.640625 0.671875 0.640625 1.671875z" fill-rule="nonzero"></path><path fill="#000000" d="m43.04854 72.334694l-0.3125 -1.453125l-0.078125 0q-0.75 0.96875 -1.515625 1.3125q-0.75 0.328125 -1.890625 0.328125q-1.5 0 -2.359375 -0.78125q-0.859375 -0.78125 -0.859375 -2.21875q0 -3.078125 4.921875 -3.234375l1.734375 -0.046875l0 -0.625q0 -1.203125 -0.515625 -1.7656212q-0.515625 -0.578125 -1.65625 -0.578125q-1.265625 0 -2.875 0.7812462l-0.46875 -1.1874962q0.75 -0.40625 1.640625 -0.625q0.90625 -0.234375 1.796875 -0.234375q1.828125 0 2.703125 0.8125q0.875 0.796875 0.875 2.5781212l0 6.9375l-1.140625 0zm-3.484375 -1.078125q1.4375 0 2.25 -0.78125q0.828125 -0.796875 0.828125 -2.21875l0 -0.921875l-1.53125 0.0625q-1.84375 0.0625 -2.65625 0.578125q-0.8125 0.5 -0.8125 1.5625q0 0.84375 0.5 1.28125q0.515625 0.4375 1.421875 0.4375zm11.672592 1.265625q-2.21875 0 -3.4375 -1.359375q-1.203125 -1.359375 -1.203125 -3.84375q0 -2.5625 1.234375 -3.9531212q1.234375 -1.390625 3.5 -1.390625q0.734375 0 1.46875 0.171875q0.734375 0.15625 1.15625 0.359375l-0.484375 1.3125q-0.5 -0.203125 -1.109375 -0.328125q-0.609375 -0.140625 -1.0625 -0.140625q-3.109375 0 -3.109375 3.9531212q0 1.875 0.75 2.875q0.765625 1.0 2.25 1.0q1.28125 0 2.609375 -0.546875l0 1.359375q-1.015625 0.53125 -2.5625 0.53125zm8.10051 -1.265625q0.40625 0 0.78125 -0.0625q0.390625 -0.0625 0.609375 -0.125l0 1.171875q-0.25 0.125 -0.75 0.203125q-0.484375 0.078125 -0.875 0.078125q-2.9375 0 -2.9375 -3.109375l0 -6.046871l-1.46875 0l0 -0.75l1.46875 -0.640625l0.640625 -2.171875l0.890625 0l0 2.359375l2.953125 0l0 1.203125l-2.953125 0l0 5.984371q0 0.921875 0.4375 1.421875q0.4375 0.484375 1.203125 0.484375zm4.8361664 1.078125l-1.53125 0l0 -10.171871l1.53125 0l0 10.171871zm-1.671875 -12.921871q0 -0.53125 0.25 -0.765625q0.265625 -0.25 0.65625 -0.25q0.375 0 0.640625 0.25q0.28125 0.25 0.28125 0.765625q0 0.515625 -0.28125 0.78125q-0.265625 0.25 -0.640625 0.25q-0.390625 0 -0.65625 -0.25q-0.25 -0.265625 -0.25 -0.78125zm7.0780945 12.921871l-3.859375 -10.171871l1.65625 0l2.1875 6.031246q0.734375 2.125 0.875 2.75l0.0625 0q0.109375 -0.5 0.640625 -2.03125q0.546875 -1.546875 2.453125 -6.749996l1.640625 0l-3.859375 10.171871l-1.796875 0zm11.408844 0.1875q-2.25 0 -3.5625 -1.375q-1.296875 -1.375 -1.296875 -3.8125q0 -2.453125 1.203125 -3.9062462q1.21875 -1.453125 3.265625 -1.453125q1.90625 0 3.015625 1.265625q1.125 1.2499962 1.125 3.3124962l0 0.96875l-7.015625 0q0.046875 1.796875 0.90625 2.734375q0.859375 0.921875 2.421875 0.921875q1.640625 0 3.25 -0.6875l0 1.375q-0.8125 0.34375 -1.546875 0.5q-0.734375 0.15625 -1.765625 0.15625zm-0.40625 -9.249996q-1.234375 0 -1.96875 0.7968712q-0.71875 0.796875 -0.84375 2.203125l5.3125 0q0 -1.453125 -0.65625 -2.21875q-0.640625 -0.7812462 -1.84375 -0.7812462zm8.123062 9.062496l-1.53125 0l0 -14.437496l1.53125 0l0 14.437496zm1.5624695 -10.171871l1.65625 0l2.21875 5.796871q0.734375 1.984375 0.921875 2.875l0.0625 0q0.125 -0.46875 0.5 -1.609375q0.390625 -1.15625 2.53125 -7.062496l1.65625 0l-4.375 11.578121q-0.65625 1.71875 -1.53125 2.4375q-0.859375 0.71875 -2.109375 0.71875q-0.71875 0 -1.390625 -0.15625l0 -1.234375q0.5 0.109375 1.140625 0.109375q1.578125 0 2.25 -1.78125l0.578125 -1.4375l-4.109375 -10.234371zm20.497253 -0.1875q0.6875 0 1.21875 0.109375l-0.203125 1.4375q-0.640625 -0.140625 -1.125 -0.140625q-1.234375 0 -2.109375 0.9999962q-0.875 1.0 -0.875 2.5l0 5.453125l-1.53125 0l0 -10.171871l1.265625 0l0.171875 1.8906212l0.078125 0q0.5625 -0.9999962 1.359375 -1.5312462q0.796875 -0.546875 1.75 -0.546875zm7.2717896 10.546871q-2.25 0 -3.5625 -1.375q-1.296875 -1.375 -1.296875 -3.8125q0 -2.453125 1.203125 -3.9062462q1.21875 -1.453125 3.265625 -1.453125q1.90625 0 3.015625 1.265625q1.125 1.2499962 1.125 3.3124962l0 0.96875l-7.015625 0q0.046875 1.796875 0.90625 2.734375q0.859375 0.921875 2.421875 0.921875q1.640625 0 3.25 -0.6875l0 1.375q-0.8125 0.34375 -1.546875 0.5q-0.734375 0.15625 -1.765625 0.15625zm-0.40625 -9.249996q-1.234375 0 -1.96875 0.7968712q-0.71875 0.796875 -0.84375 2.203125l5.3125 0q0 -1.453125 -0.65625 -2.21875q-0.640625 -0.7812462 -1.84375 -0.7812462zm12.841812 9.062496l-0.3125 -1.453125l-0.078125 0q-0.75 0.96875 -1.515625 1.3125q-0.75 0.328125 -1.890625 0.328125q-1.5 0 -2.359375 -0.78125q-0.859375 -0.78125 -0.859375 -2.21875q0 -3.078125 4.921875 -3.234375l1.734375 -0.046875l0 -0.625q0 -1.203125 -0.515625 -1.7656212q-0.515625 -0.578125 -1.65625 -0.578125q-1.265625 0 -2.875 0.7812462l-0.46875 -1.1874962q0.75 -0.40625 1.640625 -0.625q0.90625 -0.234375 1.796875 -0.234375q1.828125 0 2.703125 0.8125q0.875 0.796875 0.875 2.5781212l0 6.9375l-1.140625 0zm-3.484375 -1.078125q1.4375 0 2.25 -0.78125q0.828125 -0.796875 0.828125 -2.21875l0 -0.921875l-1.53125 0.0625q-1.84375 0.0625 -2.65625 0.578125q-0.8125 0.5 -0.8125 1.5625q0 0.84375 0.5 1.28125q0.515625 0.4375 1.421875 0.4375zm11.672592 1.265625q-2.21875 0 -3.4375 -1.359375q-1.203125 -1.359375 -1.203125 -3.84375q0 -2.5625 1.234375 -3.9531212q1.234375 -1.390625 3.5 -1.390625q0.734375 0 1.46875 0.171875q0.734375 0.15625 1.15625 0.359375l-0.484375 1.3125q-0.5 -0.203125 -1.109375 -0.328125q-0.609375 -0.140625 -1.0625 -0.140625q-3.109375 0 -3.109375 3.9531212q0 1.875 0.75 2.875q0.765625 1.0 2.25 1.0q1.28125 0 2.609375 -0.546875l0 1.359375q-1.015625 0.53125 -2.5625 0.53125zm11.772385 -0.1875l0 -6.578125q0 -1.25 -0.578125 -1.8593712q-0.5625 -0.609375 -1.765625 -0.609375q-1.609375 0 -2.34375 0.8749962q-0.734375 0.875 -0.734375 2.859375l0 5.3125l-1.53125 0l0 -14.437496l1.53125 0l0 4.375q0 0.78125 -0.078125 1.296875l0.09375 0q0.453125 -0.71875 1.296875 -1.140625q0.84375 -0.421875 1.921875 -0.421875q1.859375 0 2.78125 0.890625q0.9375 0.875 0.9375 2.7968712l0 6.640625l-1.53125 0zm6.028763 0l-1.53125 0l0 -10.171871l1.53125 0l0 10.171871zm-1.671875 -12.921871q0 -0.53125 0.25 -0.765625q0.265625 -0.25 0.65625 -0.25q0.375 0 0.640625 0.25q0.28125 0.25 0.28125 0.765625q0 0.515625 -0.28125 0.78125q-0.265625 0.25 -0.640625 0.25q-0.390625 0 -0.65625 -0.25q-0.25 -0.265625 -0.25 -0.78125zm11.8124695 12.921871l0 -6.578125q0 -1.25 -0.578125 -1.8593712q-0.5625 -0.609375 -1.765625 -0.609375q-1.59375 0 -2.34375 0.8749962q-0.734375 0.859375 -0.734375 2.84375l0 5.328125l-1.53125 0l0 -10.171871l1.25 0l0.25 1.390625l0.0625 0q0.484375 -0.75 1.328125 -1.15625q0.859375 -0.421875 1.90625 -0.421875q1.84375 0 2.765625 0.890625q0.921875 0.890625 0.921875 2.8281212l0 6.640625l-1.53125 0zm12.810013 -10.171871l0 0.984375l-1.875 0.21875q0.25 0.328125 0.453125 0.8593712q0.203125 0.515625 0.203125 1.171875q0 1.484375 -1.015625 2.375q-1.015625 0.890625 -2.796875 0.890625q-0.453125 0 -0.859375 -0.0625q-0.984375 0.515625 -0.984375 1.296875q0 0.421875 0.34375 0.625q0.34375 0.203125 1.1875 0.203125l1.796875 0q1.640625 0 2.53125 0.703125q0.890625 0.6875 0.890625 2.015625q0 1.6875 -1.359375 2.5625q-1.359375 0.890625 -3.953125 0.890625q-1.984375 0 -3.078125 -0.75q-1.078125 -0.734375 -1.078125 -2.09375q0 -0.921875 0.59375 -1.609375q0.59375 -0.671875 1.671875 -0.90625q-0.390625 -0.171875 -0.65625 -0.546875q-0.265625 -0.375 -0.265625 -0.859375q0 -0.5625 0.296875 -0.96875q0.296875 -0.421875 0.9375 -0.8125q-0.78125 -0.328125 -1.28125 -1.109375q-0.5 -0.78125 -0.5 -1.78125q0 -1.6718712 1.0 -2.5781212q1.0 -0.90625 2.84375 -0.90625q0.796875 0 1.4375 0.1875l3.515625 0zm-8.109375 11.874996q0 0.828125 0.6875 1.25q0.703125 0.4375 2.0 0.4375q1.9375 0 2.875 -0.578125q0.9375 -0.578125 0.9375 -1.578125q0 -0.828125 -0.515625 -1.15625q-0.515625 -0.3125 -1.921875 -0.3125l-1.84375 0q-1.046875 0 -1.640625 0.5q-0.578125 0.5 -0.578125 1.4375zm0.84375 -8.609375q0 1.0625 0.59375 1.609375q0.609375 0.546875 1.6875 0.546875q2.25 0 2.25 -2.1875q0 -2.2968712 -2.28125 -2.2968712q-1.09375 0 -1.671875 0.59375q-0.578125 0.5781212 -0.578125 1.7343712zm22.785858 1.8125q0 2.484375 -1.25 3.890625q-1.25 1.390625 -3.453125 1.390625q-1.375 0 -2.4375 -0.640625q-1.046875 -0.640625 -1.625 -1.828125q-0.578125 -1.203125 -0.578125 -2.8125q0 -2.484375 1.234375 -3.8749962q1.25 -1.390625 3.46875 -1.390625q2.125 0 3.375 1.421875q1.265625 1.4218712 1.265625 3.8437462zm-7.75 0q0 1.953125 0.78125 2.96875q0.78125 1.015625 2.296875 1.015625q1.515625 0 2.296875 -1.015625q0.78125 -1.015625 0.78125 -2.96875q0 -1.9375 -0.78125 -2.9375q-0.78125 -1.0156212 -2.3125 -1.0156212q-1.515625 0 -2.296875 0.9999962q-0.765625 0.984375 -0.765625 2.953125zm11.690323 -5.078121l0 6.593746q0 1.25 0.5625 1.859375q0.578125 0.609375 1.78125 0.609375q1.59375 0 2.328125 -0.859375q0.734375 -0.875 0.734375 -2.859375l0 -5.343746l1.546875 0l0 10.171871l-1.265625 0l-0.234375 -1.359375l-0.078125 0q-0.46875 0.75 -1.3125 1.15625q-0.84375 0.390625 -1.921875 0.390625q-1.84375 0 -2.78125 -0.875q-0.921875 -0.890625 -0.921875 -2.828125l0 -6.656246l1.5625 0zm13.294388 9.093746q0.40625 0 0.78125 -0.0625q0.390625 -0.0625 0.609375 -0.125l0 1.171875q-0.25 0.125 -0.75 0.203125q-0.484375 0.078125 -0.875 0.078125q-2.9375 0 -2.9375 -3.109375l0 -6.046871l-1.46875 0l0 -0.75l1.46875 -0.640625l0.640625 -2.171875l0.890625 0l0 2.359375l2.953125 0l0 1.203125l-2.953125 0l0 5.984371q0 0.921875 0.4375 1.421875q0.4375 0.484375 1.203125 0.484375z" fill-rule="nonzero"></path><path fill="#000000" d="m79.69244 93.25657q0.40625 0 0.78125 -0.0625q0.390625 -0.0625 0.609375 -0.125l0 1.171875q-0.25 0.125 -0.75 0.203125q-0.484375 0.078125 -0.875 0.078125q-2.9375 0 -2.9375 -3.109375l0 -6.046875l-1.46875 0l0 -0.75l1.46875 -0.640625l0.640625 -2.171875l0.890625 0l0 2.359375l2.953125 0l0 1.203125l-2.953125 0l0 5.984375q0 0.921875 0.4375 1.421875q0.4375 0.484375 1.203125 0.484375zm12.070541 -4.015625q0 2.484375 -1.25 3.890625q-1.25 1.390625 -3.453125 1.390625q-1.375 0 -2.4375 -0.640625q-1.046875 -0.640625 -1.625 -1.828125q-0.578125 -1.203125 -0.578125 -2.8125q0 -2.484375 1.234375 -3.875q1.25 -1.390625 3.46875 -1.390625q2.125 0 3.375 1.421875q1.265625 1.421875 1.265625 3.84375zm-7.75 0q0 1.953125 0.78125 2.96875q0.78125 1.015625 2.296875 1.015625q1.515625 0 2.296875 -1.015625q0.78125 -1.015625 0.78125 -2.96875q0 -1.9375 -0.78125 -2.9375q-0.78125 -1.015625 -2.3125 -1.015625q-1.515625 0 -2.296875 1.0q-0.765625 0.984375 -0.765625 2.953125zm13.474075 -5.078125l1.65625 0l2.21875 5.796875q0.734375 1.984375 0.921875 2.875l0.0625 0q0.125 -0.46875 0.5 -1.609375q0.390625 -1.15625 2.53125 -7.0625l1.65625 0l-4.375 11.578125q-0.65625 1.71875 -1.53125 2.4375q-0.859375 0.71875 -2.109375 0.71875q-0.71875 0 -1.390625 -0.15625l0 -1.234375q0.5 0.109375 1.140625 0.109375q1.578125 0 2.25 -1.78125l0.578125 -1.4375l-4.109375 -10.234375zm19.791626 5.078125q0 2.484375 -1.25 3.890625q-1.25 1.390625 -3.453125 1.390625q-1.375 0 -2.4375 -0.640625q-1.046875 -0.640625 -1.625 -1.828125q-0.578125 -1.203125 -0.578125 -2.8125q0 -2.484375 1.234375 -3.875q1.25 -1.390625 3.46875 -1.390625q2.125 0 3.375 1.421875q1.265625 1.421875 1.265625 3.84375zm-7.75 0q0 1.953125 0.78125 2.96875q0.78125 1.015625 2.296875 1.015625q1.515625 0 2.296875 -1.015625q0.78125 -1.015625 0.78125 -2.96875q0 -1.9375 -0.78125 -2.9375q-0.78125 -1.015625 -2.3125 -1.015625q-1.515625 0 -2.296875 1.0q-0.765625 0.984375 -0.765625 2.953125zm11.690323 -5.078125l0 6.59375q0 1.25 0.5625 1.859375q0.578125 0.609375 1.78125 0.609375q1.59375 0 2.328125 -0.859375q0.734375 -0.875 0.734375 -2.859375l0 -5.34375l1.5468826 0l0 10.171875l-1.2656326 0l-0.234375 -1.359375l-0.078125 0q-0.46875 0.75 -1.3125 1.15625q-0.84375 0.390625 -1.921875 0.390625q-1.84375 0 -2.78125 -0.875q-0.921875 -0.890625 -0.921875 -2.828125l0 -6.65625l1.5625 0z" fill-rule="nonzero"></path><path fill="#000000" d="m145.50027 94.334694l-2.828125 0l0 -6.0625q0 -1.125 -0.40625 -1.671875q-0.390625 -0.5625 -1.265625 -0.5625q-1.1875 0 -1.71875 0.796875q-0.53125 0.78125 -0.53125 2.625l0 4.875l-2.828125 0l0 -10.375l2.15625 0l0.390625 1.328125l0.15625 0q0.46875 -0.75 1.296875 -1.125q0.828125 -0.390625 1.890625 -0.390625q1.8125 0 2.75 0.984375q0.9375 0.96875 0.9375 2.8125l0 6.765625zm4.933258 -5.203125q0 1.53125 0.5 2.328125q0.515625 0.78125 1.65625 0.78125q1.125 0 1.625 -0.78125q0.5 -0.78125 0.5 -2.328125q0 -1.546875 -0.5 -2.3125q-0.5 -0.765625 -1.640625 -0.765625q-1.140625 0 -1.640625 0.765625q-0.5 0.765625 -0.5 2.3125zm7.171875 0q0 2.53125 -1.34375 3.96875q-1.328125 1.421875 -3.703125 1.421875q-1.5 0 -2.640625 -0.65625q-1.140625 -0.65625 -1.75 -1.875q-0.609375 -1.234375 -0.609375 -2.859375q0 -2.546875 1.3125 -3.953125q1.328125 -1.40625 3.734375 -1.40625q1.5 0 2.640625 0.65625q1.140625 0.640625 1.75 1.859375q0.609375 1.203125 0.609375 2.84375zm10.660217 5.203125l-0.796875 -3.625l-1.078125 -4.578125l-0.0625 0l-1.90625 8.203125l-3.03125 0l-2.953125 -10.375l2.8125 0l1.203125 4.59375q0.28125 1.234375 0.578125 3.40625l0.0625 0q0.03125 -0.703125 0.328125 -2.234375l0.140625 -0.796875l1.28125 -4.96875l3.125 0l1.203125 4.96875q0.046875 0.203125 0.125 0.609375q0.078125 0.40625 0.140625 0.859375q0.078125 0.4375 0.140625 0.875q0.0625 0.421875 0.078125 0.6875l0.046875 0q0.09375 -0.671875 0.296875 -1.828125q0.21875 -1.171875 0.3125 -1.578125l1.234375 -4.59375l2.78125 0l-2.984375 10.375l-3.078125 0z" fill-rule="nonzero"></path><path fill="#000000" fill-opacity="0.0" d="m734.5289 12.391076l201.95276 0l0 105.32284l-201.95276 0z" fill-rule="evenodd"></path><path fill="#000000" d="m759.6991 32.2017l4.609375 0l0 6.59375q-1.078125 0.34375 -2.1875 0.515625q-1.109375 0.1875 -2.578125 0.1875q-3.078125 0 -4.796875 -1.828125q-1.71875 -1.84375 -1.71875 -5.140625q0 -2.109373 0.84375 -3.703123q0.859375 -1.59375 2.453125 -2.4375q1.59375 -0.84375 3.734375 -0.84375q2.171875 0 4.046875 0.8125l-0.609375 1.390625q-1.84375 -0.78125 -3.53125 -0.78125q-2.484375 0 -3.875 1.484375q-1.390625 1.46875 -1.390625 4.078123q0 2.75 1.34375 4.171875q1.34375 1.40625 3.9375 1.40625q1.40625 0 2.75 -0.3125l0 -4.1875l-3.03125 0l0 -1.40625zm16.1604 2.015625q0 2.484375 -1.25 3.890625q-1.25 1.390625 -3.453125 1.390625q-1.375 0 -2.4375 -0.640625q-1.046875 -0.640625 -1.625 -1.828125q-0.578125 -1.203125 -0.578125 -2.8125q0 -2.484373 1.234375 -3.874998q1.25 -1.390625 3.46875 -1.390625q2.125 0 3.375 1.421875q1.265625 1.421875 1.265625 3.843748zm-7.75 0q0 1.953125 0.78125 2.96875q0.78125 1.015625 2.296875 1.015625q1.515625 0 2.296875 -1.015625q0.78125 -1.015625 0.78125 -2.96875q0 -1.9375 -0.78125 -2.937498q-0.78125 -1.015625 -2.3125 -1.015625q-1.515625 0 -2.296875 1.0q-0.765625 0.9843731 -0.765625 2.953123zm19.018433 0q0 2.484375 -1.25 3.890625q-1.25 1.390625 -3.453125 1.390625q-1.375 0 -2.4375 -0.640625q-1.046875 -0.640625 -1.625 -1.828125q-0.578125 -1.203125 -0.578125 -2.8125q0 -2.484373 1.234375 -3.874998q1.25 -1.390625 3.46875 -1.390625q2.125 0 3.375 1.421875q1.265625 1.421875 1.265625 3.843748zm-7.75 0q0 1.953125 0.78125 2.96875q0.78125 1.015625 2.296875 1.015625q1.515625 0 2.296875 -1.015625q0.78125 -1.015625 0.78125 -2.96875q0 -1.9375 -0.78125 -2.937498q-0.78125 -1.015625 -2.3125 -1.015625q-1.515625 0 -2.296875 1.0q-0.765625 0.9843731 -0.765625 2.953123zm17.159058 3.734375l-0.078125 0q-1.0625 1.546875 -3.1875 1.546875q-2.0 0 -3.109375 -1.359375q-1.109375 -1.375 -1.109375 -3.890625q0 -2.515623 1.109375 -3.906248q1.125 -1.390625 3.109375 -1.390625q2.0625 0 3.171875 1.515625l0.125 0l-0.078125 -0.734375l-0.03125 -0.71875l0 -4.140625l1.546875 0l0 14.437498l-1.25 0l-0.21875 -1.359375zm-3.078125 0.25q1.578125 0 2.28125 -0.859375q0.71875 -0.859375 0.71875 -2.765625l0 -0.328125q0 -2.15625 -0.71875 -3.078123q-0.71875 -0.921875 -2.296875 -0.921875q-1.359375 0 -2.078125 1.0625q-0.71875 1.0468731 -0.71875 2.968748q0 1.9375 0.71875 2.9375q0.71875 0.984375 2.09375 0.984375zm13.981812 1.109375l-1.53125 0l0 -14.437498l1.53125 0l0 14.437498zm4.624939 -10.171873l0 6.593748q0 1.25 0.5625 1.859375q0.578125 0.609375 1.78125 0.609375q1.59375 0 2.328125 -0.859375q0.734375 -0.875 0.734375 -2.859375l0 -5.343748l1.546875 0l0 10.171873l-1.265625 0l-0.234375 -1.359375l-0.078125 0q-0.46875 0.75 -1.3125 1.15625q-0.84375 0.390625 -1.921875 0.390625q-1.84375 0 -2.78125 -0.875q-0.921875 -0.890625 -0.921875 -2.828125l0 -6.656248l1.5625 0zm14.075684 10.359373q-2.21875 0 -3.4375 -1.359375q-1.203125 -1.359375 -1.203125 -3.84375q0 -2.562498 1.234375 -3.953123q1.234375 -1.390625 3.5 -1.390625q0.734375 0 1.46875 0.171875q0.734375 0.15625 1.15625 0.359375l-0.484375 1.3125q-0.5 -0.203125 -1.109375 -0.328125q-0.609375 -0.140625 -1.0625 -0.140625q-3.109375 0 -3.109375 3.953123q0 1.875 0.75 2.875q0.765625 1.0 2.25 1.0q1.28125 0 2.609375 -0.546875l0 1.359375q-1.015625 0.53125 -2.5625 0.53125zm6.334839 -5.390625q0.390625 -0.5625 1.21875 -1.484375l3.28125 -3.484373l1.828125 0l-4.125 4.343748l4.40625 5.828125l-1.859375 0l-3.59375 -4.8125l-1.15625 1.015625l0 3.796875l-1.515625 0l0 -14.437498l1.515625 0l0 7.656248q0 0.515625 -0.078125 1.578125l0.078125 0zm17.748352 -5.156248q0.6875 0 1.21875 0.109375l-0.203125 1.4375q-0.640625 -0.140625 -1.125 -0.140625q-1.234375 0 -2.109375 1.0q-0.875 0.9999981 -0.875 2.499998l0 5.453125l-1.53125 0l0 -10.171873l1.265625 0l0.171875 1.890625l0.078125 0q0.5625 -1.0 1.359375 -1.53125q0.796875 -0.546875 1.75 -0.546875zm7.2717896 10.546873q-2.25 0 -3.5625 -1.375q-1.296875 -1.375 -1.296875 -3.8125q0 -2.453123 1.203125 -3.906248q1.21875 -1.453125 3.265625 -1.453125q1.90625 0 3.015625 1.265625q1.125 1.25 1.125 3.312498l0 0.96875l-7.015625 0q0.046875 1.796875 0.90625 2.734375q0.859375 0.921875 2.421875 0.921875q1.640625 0 3.25 -0.6875l0 1.375q-0.8125 0.34375 -1.546875 0.5q-0.734375 0.15625 -1.765625 0.15625zm-0.40625 -9.249998q-1.234375 0 -1.96875 0.796875q-0.71875 0.796875 -0.84375 2.203123l5.3125 0q0 -1.4531231 -0.65625 -2.218748q-0.640625 -0.78125 -1.84375 -0.78125zm12.841797 9.062498l-0.3125 -1.453125l-0.078125 0q-0.75 0.96875 -1.515625 1.3125q-0.75 0.328125 -1.890625 0.328125q-1.5 0 -2.359375 -0.78125q-0.859375 -0.78125 -0.859375 -2.21875q0 -3.078125 4.921875 -3.234375l1.734375 -0.046875l0 -0.625q0 -1.2031231 -0.515625 -1.7656231q-0.515625 -0.578125 -1.65625 -0.578125q-1.265625 0 -2.875 0.78125l-0.46875 -1.1875q0.75 -0.40625 1.640625 -0.625q0.90625 -0.234375 1.796875 -0.234375q1.828125 0 2.703125 0.8125q0.875 0.796875 0.875 2.578123l0 6.9375l-1.140625 0zm-3.484375 -1.078125q1.4375 0 2.25 -0.78125q0.828125 -0.796875 0.828125 -2.21875l0 -0.921875l-1.53125 0.0625q-1.84375 0.0625 -2.65625 0.578125q-0.8125 0.5 -0.8125 1.5625q0 0.84375 0.5 1.28125q0.515625 0.4375 1.421875 0.4375zm11.672607 1.265625q-2.21875 0 -3.4375 -1.359375q-1.203125 -1.359375 -1.203125 -3.84375q0 -2.562498 1.234375 -3.953123q1.234375 -1.390625 3.5 -1.390625q0.734375 0 1.46875 0.171875q0.734375 0.15625 1.15625 0.359375l-0.484375 1.3125q-0.5 -0.203125 -1.109375 -0.328125q-0.609375 -0.140625 -1.0625 -0.140625q-3.109375 0 -3.109375 3.953123q0 1.875 0.75 2.875q0.765625 1.0 2.25 1.0q1.28125 0 2.609375 -0.546875l0 1.359375q-1.015625 0.53125 -2.5625 0.53125zm11.7724 -0.1875l0 -6.578125q0 -1.2499981 -0.578125 -1.8593731q-0.5625 -0.609375 -1.765625 -0.609375q-1.609375 0 -2.34375 0.875q-0.734375 0.8749981 -0.734375 2.859373l0 5.3125l-1.53125 0l0 -14.437498l1.53125 0l0 4.375q0 0.78125 -0.078125 1.296875l0.09375 0q0.453125 -0.71875 1.296875 -1.140625q0.84375 -0.421875 1.921875 -0.421875q1.859375 0 2.78125 0.890625q0.9375 0.875 0.9375 2.796873l0 6.640625l-1.53125 0zm6.0287476 0l-1.53125 0l0 -10.171873l1.53125 0l0 10.171873zm-1.671875 -12.921873q0 -0.53125 0.25 -0.765625q0.265625 -0.25 0.65625 -0.25q0.375 0 0.640625 0.25q0.28125 0.25 0.28125 0.765625q0 0.515625 -0.28125 0.78125q-0.265625 0.25 -0.640625 0.25q-0.390625 0 -0.65625 -0.25q-0.25 -0.265625 -0.25 -0.78125zm11.8125 12.921873l0 -6.578125q0 -1.2499981 -0.578125 -1.8593731q-0.5625 -0.609375 -1.765625 -0.609375q-1.59375 0 -2.34375 0.875q-0.734375 0.859375 -0.734375 2.843748l0 5.328125l-1.53125 0l0 -10.171873l1.25 0l0.25 1.390625l0.0625 0q0.484375 -0.75 1.328125 -1.15625q0.859375 -0.421875 1.90625 -0.421875q1.84375 0 2.765625 0.890625q0.921875 0.890625 0.921875 2.828123l0 6.640625l-1.53125 0zm12.809998 -10.171873l0 0.984375l-1.875 0.21875q0.25 0.328125 0.453125 0.859375q0.203125 0.515625 0.203125 1.1718731q0 1.484375 -1.015625 2.375q-1.015625 0.890625 -2.796875 0.890625q-0.453125 0 -0.859375 -0.0625q-0.984375 0.515625 -0.984375 1.296875q0 0.421875 0.34375 0.625q0.34375 0.203125 1.1875 0.203125l1.796875 0q1.640625 0 2.53125 0.703125q0.890625 0.6875 0.890625 2.015625q0 1.6875 -1.359375 2.5625q-1.359375 0.890625 -3.953125 0.890625q-1.984375 0 -3.078125 -0.75q-1.078125 -0.734375 -1.078125 -2.09375q0 -0.921875 0.59375 -1.609375q0.59375 -0.671875 1.671875 -0.90625q-0.390625 -0.171875 -0.65625 -0.546875q-0.265625 -0.375 -0.265625 -0.859375q0 -0.5625 0.296875 -0.96875q0.296875 -0.421875 0.9375 -0.8125q-0.78125 -0.328125 -1.28125 -1.109375q-0.5 -0.78125 -0.5 -1.78125q0 -1.6718731 1.0 -2.578123q1.0 -0.90625 2.84375 -0.90625q0.796875 0 1.4375 0.1875l3.515625 0zm-8.109375 11.874998q0 0.828125 0.6875 1.25q0.703125 0.4375 2.0 0.4375q1.9375 0 2.875 -0.578125q0.9375 -0.578125 0.9375 -1.578125q0 -0.828125 -0.515625 -1.15625q-0.515625 -0.3125 -1.921875 -0.3125l-1.84375 0q-1.046875 0 -1.640625 0.5q-0.578125 0.5 -0.578125 1.4375zm0.84375 -8.609375q0 1.0625 0.59375 1.609375q0.609375 0.546875 1.6875 0.546875q2.25 0 2.25 -2.1875q0 -2.296873 -2.28125 -2.296873q-1.09375 0 -1.671875 0.59375q-0.578125 0.578125 -0.578125 1.7343731z" fill-rule="nonzero"></path><path fill="#000000" d="m768.66754 56.217323q0 2.484375 -1.25 3.890625q-1.25 1.390625 -3.453125 1.390625q-1.375 0 -2.4375 -0.640625q-1.046875 -0.640625 -1.625 -1.828125q-0.578125 -1.203125 -0.578125 -2.8125q0 -2.484375 1.234375 -3.875q1.25 -1.390625 3.46875 -1.390625q2.125 0 3.375 1.421875q1.265625 1.421875 1.265625 3.84375zm-7.75 0q0 1.953125 0.78125 2.96875q0.78125 1.015625 2.296875 1.015625q1.515625 0 2.296875 -1.015625q0.78125 -1.015625 0.78125 -2.96875q0 -1.9375 -0.78125 -2.9375q-0.78125 -1.015625 -2.3125 -1.015625q-1.515625 0 -2.296875 1.0q-0.765625 0.984375 -0.765625 2.953125zm11.690308 -5.078125l0 6.59375q0 1.25 0.5625 1.859375q0.578125 0.609375 1.78125 0.609375q1.59375 0 2.328125 -0.859375q0.734375 -0.875 0.734375 -2.859375l0 -5.34375l1.546875 0l0 10.171875l-1.265625 0l-0.234375 -1.359375l-0.078125 0q-0.46875 0.75 -1.3125 1.15625q-0.84375 0.390625 -1.921875 0.390625q-1.84375 0 -2.78125 -0.875q-0.921875 -0.890625 -0.921875 -2.828125l0 -6.65625l1.5625 0zm13.294373 9.09375q0.40625 0 0.78125 -0.0625q0.390625 -0.0625 0.609375 -0.125l0 1.171875q-0.25 0.125 -0.75 0.203125q-0.484375 0.078125 -0.875 0.078125q-2.9375 0 -2.9375 -3.109375l0 -6.046875l-1.46875 0l0 -0.75l1.46875 -0.640625l0.640625 -2.171875l0.890625 0l0 2.359375l2.953125 0l0 1.203125l-2.953125 0l0 5.984375q0 0.921875 0.4375 1.421875q0.4375 0.484375 1.203125 0.484375zm11.432434 0q0.40625 0 0.78125 -0.0625q0.390625 -0.0625 0.609375 -0.125l0 1.171875q-0.25 0.125 -0.75 0.203125q-0.484375 0.078125 -0.875 0.078125q-2.9375 0 -2.9375 -3.109375l0 -6.046875l-1.46875 0l0 -0.75l1.46875 -0.640625l0.640625 -2.171875l0.890625 0l0 2.359375l2.953125 0l0 1.203125l-2.953125 0l0 5.984375q0 0.921875 0.4375 1.421875q0.4375 0.484375 1.203125 0.484375zm12.070557 -4.015625q0 2.484375 -1.25 3.890625q-1.25 1.390625 -3.453125 1.390625q-1.375 0 -2.4375 -0.640625q-1.046875 -0.640625 -1.625 -1.828125q-0.578125 -1.203125 -0.578125 -2.8125q0 -2.484375 1.234375 -3.875q1.25 -1.390625 3.46875 -1.390625q2.125 0 3.375 1.421875q1.265625 1.421875 1.265625 3.84375zm-7.75 0q0 1.953125 0.78125 2.96875q0.78125 1.015625 2.296875 1.015625q1.515625 0 2.296875 -1.015625q0.78125 -1.015625 0.78125 -2.96875q0 -1.9375 -0.78125 -2.9375q-0.78125 -1.015625 -2.3125 -1.015625q-1.515625 0 -2.296875 1.0q-0.765625 0.984375 -0.765625 2.953125zm18.38031 4.015625q0.40625 0 0.78125 -0.0625q0.390625 -0.0625 0.609375 -0.125l0 1.171875q-0.25 0.125 -0.75 0.203125q-0.484375 0.078125 -0.875 0.078125q-2.9375 0 -2.9375 -3.109375l0 -6.046875l-1.46875 0l0 -0.75l1.46875 -0.640625l0.640625 -2.171875l0.890625 0l0 2.359375l2.953125 0l0 1.203125l-2.953125 0l0 5.984375q0 0.921875 0.4375 1.421875q0.4375 0.484375 1.203125 0.484375zm10.258057 1.078125l0 -6.578125q0 -1.25 -0.578125 -1.859375q-0.5625 -0.609375 -1.765625 -0.609375q-1.609375 0 -2.34375 0.875q-0.734375 0.875 -0.734375 2.859375l0 5.3125l-1.53125 0l0 -14.4375l1.53125 0l0 4.375q0 0.78125 -0.078125 1.296875l0.09375 0q0.453125 -0.71875 1.296875 -1.140625q0.84375 -0.421875 1.921875 -0.421875q1.859375 0 2.78125 0.890625q0.9375 0.875 0.9375 2.796875l0 6.640625l-1.53125 0zm6.0287476 0l-1.53125 0l0 -10.171875l1.53125 0l0 10.171875zm-1.671875 -12.921875q0 -0.53125 0.25 -0.765625q0.265625 -0.25 0.65625 -0.25q0.375 0 0.640625 0.25q0.28125 0.25 0.28125 0.765625q0 0.515625 -0.28125 0.78125q-0.265625 0.25 -0.640625 0.25q-0.390625 0 -0.65625 -0.25q-0.25 -0.265625 -0.25 -0.78125zm11.406189 10.140625q0 1.421875 -1.0625 2.203125q-1.046875 0.765625 -2.953125 0.765625q-2.03125 0 -3.15625 -0.640625l0 -1.4375q0.734375 0.375 1.5625 0.59375q0.84375 0.21875 1.625 0.21875q1.203125 0 1.84375 -0.390625q0.65625 -0.390625 0.65625 -1.171875q0 -0.59375 -0.515625 -1.015625q-0.515625 -0.421875 -2.0 -1.0q-1.421875 -0.53125 -2.03125 -0.921875q-0.59375 -0.390625 -0.890625 -0.890625q-0.28125 -0.515625 -0.28125 -1.203125q0 -1.25 1.0 -1.96875q1.015625 -0.71875 2.78125 -0.71875q1.640625 0 3.21875 0.671875l-0.546875 1.25q-1.53125 -0.625 -2.78125 -0.625q-1.09375 0 -1.65625 0.34375q-0.546875 0.34375 -0.546875 0.9375q0 0.421875 0.203125 0.703125q0.203125 0.28125 0.671875 0.546875q0.46875 0.265625 1.78125 0.75q1.8125 0.65625 2.4375 1.328125q0.640625 0.671875 0.640625 1.671875zm11.918152 2.96875q-0.984375 0 -1.8125 -0.359375q-0.8125 -0.375 -1.375 -1.140625l-0.109375 0q0.109375 0.890625 0.109375 1.6875l0 4.1875l-1.53125 0l0 -14.734375l1.25 0l0.203125 1.390625l0.078125 0q0.59375 -0.828125 1.375 -1.203125q0.796875 -0.375 1.8125 -0.375q2.03125 0 3.125 1.390625q1.09375 1.375 1.09375 3.875q0 2.5 -1.125 3.890625q-1.109375 1.390625 -3.09375 1.390625zm-0.21875 -9.234375q-1.5625 0 -2.265625 0.875q-0.6875 0.859375 -0.703125 2.734375l0 0.34375q0 2.140625 0.71875 3.0625q0.71875 0.921875 2.28125 0.921875q1.328125 0 2.0625 -1.0625q0.75 -1.0625 0.75 -2.9375q0 -1.90625 -0.75 -2.921875q-0.734375 -1.015625 -2.09375 -1.015625zm11.213684 9.234375q-2.25 0 -3.5625 -1.375q-1.296875 -1.375 -1.296875 -3.8125q0 -2.453125 1.203125 -3.90625q1.21875 -1.453125 3.265625 -1.453125q1.90625 0 3.015625 1.265625q1.125 1.25 1.125 3.3125l0 0.96875l-7.015625 0q0.046875 1.796875 0.90625 2.734375q0.859375 0.921875 2.421875 0.921875q1.640625 0 3.25 -0.6875l0 1.375q-0.8125 0.34375 -1.546875 0.5q-0.734375 0.15625 -1.765625 0.15625zm-0.40625 -9.25q-1.234375 0 -1.96875 0.796875q-0.71875 0.796875 -0.84375 2.203125l5.3125 0q0 -1.453125 -0.65625 -2.21875q-0.640625 -0.78125 -1.84375 -0.78125zm11.216797 -1.296875q0.6875 0 1.21875 0.109375l-0.203125 1.4375q-0.640625 -0.140625 -1.125 -0.140625q-1.234375 0 -2.109375 1.0q-0.875 1.0 -0.875 2.5l0 5.453125l-1.53125 0l0 -10.171875l1.265625 0l0.171875 1.890625l0.078125 0q0.5625 -1.0 1.359375 -1.53125q0.796875 -0.546875 1.75 -0.546875zm9.537415 7.578125q0 1.421875 -1.0625 2.203125q-1.046875 0.765625 -2.953125 0.765625q-2.03125 0 -3.15625 -0.640625l0 -1.4375q0.734375 0.375 1.5625 0.59375q0.84375 0.21875 1.625 0.21875q1.203125 0 1.84375 -0.390625q0.65625 -0.390625 0.65625 -1.171875q0 -0.59375 -0.515625 -1.015625q-0.515625 -0.421875 -2.0 -1.0q-1.421875 -0.53125 -2.03125 -0.921875q-0.59375 -0.390625 -0.890625 -0.890625q-0.28125 -0.515625 -0.28125 -1.203125q0 -1.25 1.0 -1.96875q1.015625 -0.71875 2.78125 -0.71875q1.640625 0 3.21875 0.671875l-0.546875 1.25q-1.53125 -0.625 -2.78125 -0.625q-1.09375 0 -1.65625 0.34375q-0.546875 0.34375 -0.546875 0.9375q0 0.421875 0.203125 0.703125q0.203125 0.28125 0.671875 0.546875q0.46875 0.265625 1.78125 0.75q1.8125 0.65625 2.4375 1.328125q0.640625 0.671875 0.640625 1.671875zm11.118713 -2.3125q0 2.484375 -1.25 3.890625q-1.25 1.390625 -3.453125 1.390625q-1.375 0 -2.4375 -0.640625q-1.046875 -0.640625 -1.625 -1.828125q-0.578125 -1.203125 -0.578125 -2.8125q0 -2.484375 1.234375 -3.875q1.25 -1.390625 3.46875 -1.390625q2.125 0 3.375 1.421875q1.265625 1.421875 1.265625 3.84375zm-7.75 0q0 1.953125 0.78125 2.96875q0.78125 1.015625 2.296875 1.015625q1.515625 0 2.296875 -1.015625q0.78125 -1.015625 0.78125 -2.96875q0 -1.9375 -0.78125 -2.9375q-0.78125 -1.015625 -2.3125 -1.015625q-1.515625 0 -2.296875 1.0q-0.765625 0.984375 -0.765625 2.953125zm17.205933 5.09375l0 -6.578125q0 -1.25 -0.578125 -1.859375q-0.5625 -0.609375 -1.765625 -0.609375q-1.59375 0 -2.34375 0.875q-0.734375 0.859375 -0.734375 2.84375l0 5.328125l-1.53125 0l0 -10.171875l1.25 0l0.25 1.390625l0.0625 0q0.484375 -0.75 1.328125 -1.15625q0.859375 -0.421875 1.90625 -0.421875q1.84375 0 2.765625 0.890625q0.921875 0.890625 0.921875 2.828125l0 6.640625l-1.53125 0z" fill-rule="nonzero"></path><path fill="#000000" d="m780.7972 83.31107l-1.859375 -5.96875q-0.1875 -0.546875 -0.671875 -2.484375l-0.0625 0q-0.375 1.625 -0.65625 2.5l-1.921875 5.953125l-1.78125 0l-2.765625 -10.171875l1.609375 0q0.984375 3.828125 1.5 5.84375q0.515625 2.0 0.59375 2.6875l0.0625 0q0.109375 -0.515625 0.328125 -1.359375q0.234375 -0.84375 0.40625 -1.328125l1.859375 -5.84375l1.671875 0l1.8125 5.84375q0.515625 1.59375 0.703125 2.671875l0.078125 0q0.03125 -0.328125 0.1875 -1.015625q0.171875 -0.703125 1.953125 -7.5l1.59375 0l-2.8125 10.171875l-1.828125 0zm7.7458496 0l-1.53125 0l0 -10.171875l1.53125 0l0 10.171875zm-1.671875 -12.921875q0 -0.53125 0.25 -0.765625q0.265625 -0.25 0.65625 -0.25q0.375 0 0.640625 0.25q0.28125 0.25 0.28125 0.765625q0 0.515625 -0.28125 0.78125q-0.265625 0.25 -0.640625 0.25q-0.390625 0 -0.65625 -0.25q-0.25 -0.265625 -0.25 -0.78125zm8.140564 11.84375q0.40625 0 0.78125 -0.0625q0.390625 -0.0625 0.609375 -0.125l0 1.171875q-0.25 0.125 -0.75 0.203125q-0.484375 0.078125 -0.875 0.078125q-2.9375 0 -2.9375 -3.109375l0 -6.046875l-1.46875 0l0 -0.75l1.46875 -0.640625l0.640625 -2.171875l0.890625 0l0 2.359375l2.953125 0l0 1.203125l-2.953125 0l0 5.984375q0 0.921875 0.4375 1.421875q0.4375 0.484375 1.203125 0.484375zm10.258057 1.078125l0 -6.578125q0 -1.25 -0.578125 -1.859375q-0.5625 -0.609375 -1.765625 -0.609375q-1.609375 0 -2.34375 0.875q-0.734375 0.875 -0.734375 2.859375l0 5.3125l-1.53125 0l0 -14.4375l1.53125 0l0 4.375q0 0.78125 -0.078125 1.296875l0.09375 0q0.453125 -0.71875 1.296875 -1.140625q0.84375 -0.421875 1.921875 -0.421875q1.859375 0 2.78125 0.890625q0.9375 0.875 0.9375 2.796875l0 6.640625l-1.53125 0zm13.263123 -5.09375q0 2.484375 -1.25 3.890625q-1.25 1.390625 -3.453125 1.390625q-1.375 0 -2.4375 -0.640625q-1.046875 -0.640625 -1.625 -1.828125q-0.578125 -1.203125 -0.578125 -2.8125q0 -2.484375 1.234375 -3.875q1.25 -1.390625 3.46875 -1.390625q2.125 0 3.375 1.421875q1.265625 1.421875 1.265625 3.84375zm-7.75 0q0 1.953125 0.78125 2.96875q0.78125 1.015625 2.296875 1.015625q1.515625 0 2.296875 -1.015625q0.78125 -1.015625 0.78125 -2.96875q0 -1.9375 -0.78125 -2.9375q-0.78125 -1.015625 -2.3125 -1.015625q-1.515625 0 -2.296875 1.0q-0.765625 0.984375 -0.765625 2.953125zm11.690308 -5.078125l0 6.59375q0 1.25 0.5625 1.859375q0.578125 0.609375 1.78125 0.609375q1.59375 0 2.328125 -0.859375q0.734375 -0.875 0.734375 -2.859375l0 -5.34375l1.546875 0l0 10.171875l-1.265625 0l-0.234375 -1.359375l-0.078125 0q-0.46875 0.75 -1.3125 1.15625q-0.84375 0.390625 -1.921875 0.390625q-1.84375 0 -2.78125 -0.875q-0.921875 -0.890625 -0.921875 -2.828125l0 -6.65625l1.5625 0zm13.294434 9.09375q0.40625 0 0.78125 -0.0625q0.390625 -0.0625 0.609375 -0.125l0 1.171875q-0.25 0.125 -0.75 0.203125q-0.484375 0.078125 -0.875 0.078125q-2.9375 0 -2.9375 -3.109375l0 -6.046875l-1.46875 0l0 -0.75l1.46875 -0.640625l0.640625 -2.171875l0.890625 0l0 2.359375l2.953125 0l0 1.203125l-2.953125 0l0 5.984375q0 0.921875 0.4375 1.421875q0.4375 0.484375 1.203125 0.484375zm14.401123 1.078125l-0.3125 -1.453125l-0.078125 0q-0.75 0.96875 -1.515625 1.3125q-0.75 0.328125 -1.890625 0.328125q-1.5 0 -2.359375 -0.78125q-0.859375 -0.78125 -0.859375 -2.21875q0 -3.078125 4.921875 -3.234375l1.734375 -0.046875l0 -0.625q0 -1.203125 -0.515625 -1.765625q-0.515625 -0.578125 -1.65625 -0.578125q-1.265625 0 -2.875 0.78125l-0.46875 -1.1875q0.75 -0.40625 1.640625 -0.625q0.90625 -0.234375 1.796875 -0.234375q1.828125 0 2.703125 0.8125q0.875 0.796875 0.875 2.578125l0 6.9375l-1.140625 0zm-3.484375 -1.078125q1.4375 0 2.25 -0.78125q0.828125 -0.796875 0.828125 -2.21875l0 -0.921875l-1.53125 0.0625q-1.84375 0.0625 -2.65625 0.578125q-0.8125 0.5 -0.8125 1.5625q0 0.84375 0.5 1.28125q0.515625 0.4375 1.421875 0.4375zm17.17511 1.265625q-0.984375 0 -1.8125 -0.359375q-0.8125 -0.375 -1.375 -1.140625l-0.109375 0q0.109375 0.890625 0.109375 1.6875l0 4.1875l-1.53125 0l0 -14.734375l1.25 0l0.203125 1.390625l0.078125 0q0.59375 -0.828125 1.375 -1.203125q0.796875 -0.375 1.8125 -0.375q2.03125 0 3.125 1.390625q1.09375 1.375 1.09375 3.875q0 2.5 -1.125 3.890625q-1.109375 1.390625 -3.09375 1.390625zm-0.21875 -9.234375q-1.5625 0 -2.265625 0.875q-0.6875 0.859375 -0.703125 2.734375l0 0.34375q0 2.140625 0.71875 3.0625q0.71875 0.921875 2.28125 0.921875q1.328125 0 2.0625 -1.0625q0.75 -1.0625 0.75 -2.9375q0 -1.90625 -0.75 -2.921875q-0.734375 -1.015625 -2.09375 -1.015625zm11.557434 -1.3125q0.6875 0 1.21875 0.109375l-0.203125 1.4375q-0.640625 -0.140625 -1.125 -0.140625q-1.234375 0 -2.109375 1.0q-0.875 1.0 -0.875 2.5l0 5.453125l-1.53125 0l0 -10.171875l1.265625 0l0.171875 1.890625l0.078125 0q0.5625 -1.0 1.359375 -1.53125q0.796875 -0.546875 1.75 -0.546875zm4.5217896 10.359375l-1.53125 0l0 -10.171875l1.53125 0l0 10.171875zm-1.671875 -12.921875q0 -0.53125 0.25 -0.765625q0.265625 -0.25 0.65625 -0.25q0.375 0 0.640625 0.25q0.28125 0.25 0.28125 0.765625q0 0.515625 -0.28125 0.78125q-0.265625 0.25 -0.640625 0.25q-0.390625 0 -0.65625 -0.25q-0.25 -0.265625 -0.25 -0.78125zm13.625 7.828125q0 2.484375 -1.25 3.890625q-1.25 1.390625 -3.453125 1.390625q-1.375 0 -2.4375 -0.640625q-1.046875 -0.640625 -1.625 -1.828125q-0.578125 -1.203125 -0.578125 -2.8125q0 -2.484375 1.234375 -3.875q1.25 -1.390625 3.46875 -1.390625q2.125 0 3.375 1.421875q1.265625 1.421875 1.265625 3.84375zm-7.75 0q0 1.953125 0.78125 2.96875q0.78125 1.015625 2.296875 1.015625q1.515625 0 2.296875 -1.015625q0.78125 -1.015625 0.78125 -2.96875q0 -1.9375 -0.78125 -2.9375q-0.78125 -1.015625 -2.3125 -1.015625q-1.515625 0 -2.296875 1.0q-0.765625 0.984375 -0.765625 2.953125zm14.877808 -5.265625q0.6875 0 1.21875 0.109375l-0.203125 1.4375q-0.640625 -0.140625 -1.125 -0.140625q-1.234375 0 -2.109375 1.0q-0.875 1.0 -0.875 2.5l0 5.453125l-1.53125 0l0 -10.171875l1.265625 0l0.171875 1.890625l0.078125 0q0.5625 -1.0 1.359375 -1.53125q0.796875 -0.546875 1.75 -0.546875z" fill-rule="nonzero"></path><path fill="#000000" d="m789.9196 94.9517q0.6875 0 1.21875 0.109375l-0.203125 1.4375q-0.640625 -0.140625 -1.125 -0.140625q-1.234375 0 -2.109375 1.0q-0.875 1.0 -0.875 2.5l0 5.453125l-1.53125 0l0 -10.171875l1.265625 0l0.171875 1.890625l0.078125 0q0.5625 -1.0 1.359375 -1.53125q0.796875 -0.546875 1.75 -0.546875zm7.2717896 10.546875q-2.25 0 -3.5625 -1.375q-1.296875 -1.375 -1.296875 -3.8125q0 -2.453125 1.203125 -3.90625q1.21875 -1.453125 3.265625 -1.453125q1.90625 0 3.015625 1.265625q1.125 1.25 1.125 3.3125l0 0.96875l-7.015625 0q0.046875 1.796875 0.90625 2.734375q0.859375 0.921875 2.421875 0.921875q1.640625 0 3.25 -0.6875l0 1.375q-0.8125 0.34375 -1.546875 0.5q-0.734375 0.15625 -1.765625 0.15625zm-0.40625 -9.25q-1.234375 0 -1.96875 0.796875q-0.71875 0.796875 -0.84375 2.203125l5.3125 0q0 -1.453125 -0.65625 -2.21875q-0.640625 -0.78125 -1.84375 -0.78125zm8.123047 9.0625l-1.53125 0l0 -14.4375l1.53125 0l0 14.4375zm9.4375 0l-0.3125 -1.453125l-0.078125 0q-0.75 0.96875 -1.515625 1.3125q-0.75 0.328125 -1.890625 0.328125q-1.5 0 -2.359375 -0.78125q-0.859375 -0.78125 -0.859375 -2.21875q0 -3.078125 4.921875 -3.234375l1.734375 -0.046875l0 -0.625q0 -1.203125 -0.515625 -1.765625q-0.515625 -0.578125 -1.65625 -0.578125q-1.265625 0 -2.875 0.78125l-0.46875 -1.1875q0.75 -0.40625 1.640625 -0.625q0.90625 -0.234375 1.796875 -0.234375q1.828125 0 2.703125 0.8125q0.875 0.796875 0.875 2.578125l0 6.9375l-1.140625 0zm-3.484375 -1.078125q1.4375 0 2.25 -0.78125q0.828125 -0.796875 0.828125 -2.21875l0 -0.921875l-1.53125 0.0625q-1.84375 0.0625 -2.65625 0.578125q-0.8125 0.5 -0.8125 1.5625q0 0.84375 0.5 1.28125q0.515625 0.4375 1.421875 0.4375zm10.891357 0q0.40625 0 0.78125 -0.0625q0.390625 -0.0625 0.609375 -0.125l0 1.171875q-0.25 0.125 -0.75 0.203125q-0.484375 0.078125 -0.875 0.078125q-2.9375 0 -2.9375 -3.109375l0 -6.046875l-1.46875 0l0 -0.75l1.46875 -0.640625l0.640625 -2.171875l0.890625 0l0 2.359375l2.953125 0l0 1.203125l-2.953125 0l0 5.984375q0 0.921875 0.4375 1.421875q0.4375 0.484375 1.203125 0.484375zm4.8361206 1.078125l-1.53125 0l0 -10.171875l1.53125 0l0 10.171875zm-1.671875 -12.921875q0 -0.53125 0.25 -0.765625q0.265625 -0.25 0.65625 -0.25q0.375 0 0.640625 0.25q0.28125 0.25 0.28125 0.765625q0 0.515625 -0.28125 0.78125q-0.265625 0.25 -0.640625 0.25q-0.390625 0 -0.65625 -0.25q-0.25 -0.265625 -0.25 -0.78125zm13.625 7.828125q0 2.484375 -1.25 3.890625q-1.25 1.390625 -3.453125 1.390625q-1.375 0 -2.4375 -0.640625q-1.046875 -0.640625 -1.625 -1.828125q-0.578125 -1.203125 -0.578125 -2.8125q0 -2.484375 1.234375 -3.875q1.25 -1.390625 3.46875 -1.390625q2.125 0 3.375 1.421875q1.265625 1.421875 1.265625 3.84375zm-7.75 0q0 1.953125 0.78125 2.96875q0.78125 1.015625 2.296875 1.015625q1.515625 0 2.296875 -1.015625q0.78125 -1.015625 0.78125 -2.96875q0 -1.9375 -0.78125 -2.9375q-0.78125 -1.015625 -2.3125 -1.015625q-1.515625 0 -2.296875 1.0q-0.765625 0.984375 -0.765625 2.953125zm17.205933 5.09375l0 -6.578125q0 -1.25 -0.578125 -1.859375q-0.5625 -0.609375 -1.765625 -0.609375q-1.59375 0 -2.34375 0.875q-0.734375 0.859375 -0.734375 2.84375l0 5.328125l-1.53125 0l0 -10.171875l1.25 0l0.25 1.390625l0.0625 0q0.484375 -0.75 1.328125 -1.15625q0.859375 -0.421875 1.90625 -0.421875q1.84375 0 2.765625 0.890625q0.921875 0.890625 0.921875 2.828125l0 6.640625l-1.53125 0zm11.044373 -2.78125q0 1.421875 -1.0625 2.203125q-1.046875 0.765625 -2.953125 0.765625q-2.03125 0 -3.15625 -0.640625l0 -1.4375q0.734375 0.375 1.5625 0.59375q0.84375 0.21875 1.625 0.21875q1.203125 0 1.84375 -0.390625q0.65625 -0.390625 0.65625 -1.171875q0 -0.59375 -0.515625 -1.015625q-0.515625 -0.421875 -2.0 -1.0q-1.421875 -0.53125 -2.03125 -0.921875q-0.59375 -0.390625 -0.890625 -0.890625q-0.28125 -0.515625 -0.28125 -1.203125q0 -1.25 1.0 -1.96875q1.015625 -0.71875 2.78125 -0.71875q1.640625 0 3.21875 0.671875l-0.546875 1.25q-1.53125 -0.625 -2.78125 -0.625q-1.09375 0 -1.65625 0.34375q-0.546875 0.34375 -0.546875 0.9375q0 0.421875 0.203125 0.703125q0.203125 0.28125 0.671875 0.546875q0.46875 0.265625 1.78125 0.75q1.8125 0.65625 2.4375 1.328125q0.640625 0.671875 0.640625 1.671875zm9.306274 2.78125l0 -6.578125q0 -1.25 -0.578125 -1.859375q-0.5625 -0.609375 -1.765625 -0.609375q-1.609375 0 -2.34375 0.875q-0.734375 0.875 -0.734375 2.859375l0 5.3125l-1.53125 0l0 -14.4375l1.53125 0l0 4.375q0 0.78125 -0.078125 1.296875l0.09375 0q0.453125 -0.71875 1.296875 -1.140625q0.84375 -0.421875 1.921875 -0.421875q1.859375 0 2.78125 0.890625q0.9375 0.875 0.9375 2.796875l0 6.640625l-1.53125 0zm6.0287476 0l-1.53125 0l0 -10.171875l1.53125 0l0 10.171875zm-1.671875 -12.921875q0 -0.53125 0.25 -0.765625q0.265625 -0.25 0.65625 -0.25q0.375 0 0.640625 0.25q0.28125 0.25 0.28125 0.765625q0 0.515625 -0.28125 0.78125q-0.265625 0.25 -0.640625 0.25q-0.390625 0 -0.65625 -0.25q-0.25 -0.265625 -0.25 -0.78125zm9.578064 13.109375q-0.984375 0 -1.8125 -0.359375q-0.8125 -0.375 -1.375 -1.140625l-0.109375 0q0.109375 0.890625 0.109375 1.6875l0 4.1875l-1.53125 0l0 -14.734375l1.25 0l0.203125 1.390625l0.078125 0q0.59375 -0.828125 1.375 -1.203125q0.796875 -0.375 1.8125 -0.375q2.03125 0 3.125 1.390625q1.09375 1.375 1.09375 3.875q0 2.5 -1.125 3.890625q-1.109375 1.390625 -3.09375 1.390625zm-0.21875 -9.234375q-1.5625 0 -2.265625 0.875q-0.6875 0.859375 -0.703125 2.734375l0 0.34375q0 2.140625 0.71875 3.0625q0.71875 0.921875 2.28125 0.921875q1.328125 0 2.0625 -1.0625q0.75 -1.0625 0.75 -2.9375q0 -1.90625 -0.75 -2.921875q-0.734375 -1.015625 -2.09375 -1.015625z" fill-rule="nonzero"></path><path fill="#000000" fill-opacity="0.0" d="m124.49475 106.69029l0 54.425186" fill-rule="evenodd"></path><path stroke="#000000" stroke-width="1.0" stroke-linejoin="round" stroke-linecap="butt" stroke-dasharray="1.0,3.0" d="m124.49475 106.69029l0 54.425186" fill-rule="evenodd"></path><path fill="#ffffff" d="m90.414696 194.5643l0 0c0 -18.481964 15.257576 -33.46457 34.078743 -33.46457l0 0c9.038239 0 17.706299 3.5257263 24.097305 9.801544c6.3910065 6.275833 9.98143 14.787674 9.98143 23.663025l0 0c0 18.48198 -15.257568 33.46457 -34.078735 33.46457l0 0c-18.821167 0 -34.078743 -14.98259 -34.078743 -33.46457z" fill-rule="evenodd"></path><path stroke="#980000" stroke-width="8.0" stroke-linejoin="round" stroke-linecap="butt" d="m90.414696 194.5643l0 0c0 -18.481964 15.257576 -33.46457 34.078743 -33.46457l0 0c9.038239 0 17.706299 3.5257263 24.097305 9.801544c6.3910065 6.275833 9.98143 14.787674 9.98143 23.663025l0 0c0 18.48198 -15.257568 33.46457 -34.078735 33.46457l0 0c-18.821167 0 -34.078743 -14.98259 -34.078743 -33.46457z" fill-rule="evenodd"></path><path fill="#000000" fill-opacity="0.0" d="m835.50525 117.71391l0 43.401566" fill-rule="evenodd"></path><path stroke="#000000" stroke-width="1.0" stroke-linejoin="round" stroke-linecap="butt" stroke-dasharray="1.0,3.0" d="m835.50525 117.71391l0 43.401566" fill-rule="evenodd"></path><path fill="#ffffff" d="m801.4252 194.5643l0 0c0 -18.481964 15.257568 -33.46457 34.078796 -33.46457l0 0c9.038208 0 17.706299 3.5257263 24.09729 9.801544c6.390991 6.275833 9.981445 14.787674 9.981445 23.663025l0 0c0 18.48198 -15.257568 33.46457 -34.078735 33.46457l0 0c-18.821228 0 -34.078796 -14.98259 -34.078796 -33.46457z" fill-rule="evenodd"></path><path stroke="#cc0000" stroke-width="8.0" stroke-linejoin="round" stroke-linecap="butt" d="m801.4252 194.5643l0 0c0 -18.481964 15.257568 -33.46457 34.078796 -33.46457l0 0c9.038208 0 17.706299 3.5257263 24.09729 9.801544c6.390991 6.275833 9.981445 14.787674 9.981445 23.663025l0 0c0 18.48198 -15.257568 33.46457 -34.078735 33.46457l0 0c-18.821228 0 -34.078796 -14.98259 -34.078796 -33.46457z" fill-rule="evenodd"></path></g></svg>

